<?xml version="1.0" standalone="no"?>
<!DOCTYPE svg PUBLIC "-//W3C//DTD SVG 1.1//EN" "http://www.w3.org/Graphics/SVG/1.1/DTD/svg11.dtd" >
<svg xmlns="http://www.w3.org/2000/svg">
<metadata>Arabfont</metadata>
<defs>
<font id="Arabfont" horiz-adv-x="1024">
<font-face units-per-em="1024" ascent="960" descent="-64" />
<missing-glyph horiz-adv-x="1024" />
<glyph unicode="&#x20;" horiz-adv-x="512" d="" />
<glyph unicode="&#xe900;" glyph-name="omega" d="M976 128h-65.22c85.78 106.34 130.1 247.36 107.28 398.8-33.82 224.48-219.68 403.5-445.16 429.66-309.42 35.9-572.9-206.1-572.9-508.46 0-121.18 42.54-232.36 113.22-320h-65.22c-26.5 0-48-21.5-48-48v-96c0-26.5 21.5-48 48-48h272c35.34 0 64 28.66 64 64v85.4c0 41.060-22.18 77.56-55.76 101.18-96.44 67.84-153.96 187.34-131.34 318.12 21.78 125.86 121 229.7 245.98 256.020 206.48 43.48 389.12-113.7 389.12-312.72 0-108.88-54.8-205.020-138.16-262.76-32.98-22.86-53.84-59.26-53.84-99.4v-85.84c0-35.34 28.66-64 64-64h272c26.5 0 48 21.5 48 48v96c0 26.5-21.5 48-48 48z" />
<glyph unicode="&#xe901;" glyph-name="oncology" d="M832 789.333c11.782 0 21.333-9.551 21.333-21.333v-640c0-11.782-9.551-21.333-21.333-21.333h-640c-11.782 0-21.333 9.551-21.333 21.333v640c0 11.782 9.551 21.333 21.333 21.333h640zM192 832c-35.346 0-64-28.654-64-64v-640c0-35.347 28.654-64 64-64h640c35.347 0 64 28.653 64 64v640c0 35.346-28.653 64-64 64h-640zM411.29 381.161l85.769-110.839-85.769-109.519-108.201 83.13 108.201 137.229zM361.148 651.661l46.182 60.698c17.154 21.114 42.225 34.308 68.614 34.308h76.533c13.195 0 26.389-2.639 38.266-9.237 11.874-5.278 22.432-14.513 30.349-25.071l47.503-62.016c36.945-48.821 36.945-116.117 0-163.62l-50.142-63.337-85.769 110.839 52.781 45.963c0 0-1.321 0-1.321 1.318-9.237 5.278-19.793 7.917-30.349 7.917h-77.852c-10.556 0-21.111-3.957-30.349-9.235l52.781-45.963 124.034-158.342 102.923-131.951-106.88-83.13-257.306 327.241c-36.947 47.501-36.947 114.797 0 163.618zM425.803 626.59c1.321-1.318 1.321-2.639 2.641-3.957 2.639 2.639 6.596 3.957 10.556 5.278 11.874 5.278 25.071 9.237 38.266 9.237h76.531c13.195 0 26.391-2.639 38.266-9.237 2.639-1.321 6.598-3.959 9.237-5.278 9.237 13.195 14.515 10.334 10.556 26.17-1.318 9.235-5.278 18.473-11.876 26.389-5.278 6.598-13.195 13.195-21.111 17.154s-17.154 6.598-26.389 6.598h-76.533c-18.473 0-35.627-9.237-47.501-23.753-14.515-19.793-17.154-27.488-2.641-48.602z" />
<glyph unicode="&#xe902;" glyph-name="one" d="M234.667 106.667l-86.624 187.684c-23.35 50.592-3.826 110.633 44.815 137.815l240.147 134.199c22.089 12.343 49.378 10.513 69.621-4.668l21.897-16.425c13.267-9.95 32.316-1.623 34.020 14.871l25.367 245.203c1.762 17.051 10.293 32.682 23.68 43.39l4.597 3.679c15.834 12.666 38.658 11.402 52.996-2.935 11.194-11.194 17.483-26.376 17.483-42.206v-474.89c0-17.888 20.683-27.84 34.652-16.666l72.015 57.613c35.262 28.209 82.665 9.792 112.107-9.493 9.357-6.129 10.746-18.805 4.096-27.802l-169.536-229.372c0 0-74.667-85.333-245.333-85.333s-241.777 56.89-256 85.333z" />
<glyph unicode="&#xe903;" glyph-name="onedrive" d="M554.667 746.667c-77.269 0-144.289-41.475-181.75-103-22.528 10.965-47.498 17.667-74.25 17.667-94.251 0-170.667-76.416-170.667-170.667 0-15.36 2.703-30.001 6.5-44.167-51.797-7.296-91.833-51.321-91.833-105.167 0-58.923 47.744-106.667 106.667-106.667h23.5c-0.811 7.083-2.167 14.037-2.167 21.333 0 87.936 59.439 162.261 140.25 184.917 33.109 102.997 129.873 177.75 243.75 177.75 56.405 0 109.643-18.181 153.333-51.333 17.963 5.333 36.68 7.949 55.667 8.333-19.627 97.493-105.704 171-209 171zM554.667 533.333c-94.251 0-170.667-76.416-170.667-170.667 0-0.768 0.25-1.441 0.25-2.167-6.955 1.408-14.202 2.167-21.583 2.167-58.923 0-106.667-47.744-106.667-106.667s47.744-106.667 106.667-106.667h533.333c47.147 0 85.333 38.187 85.333 85.333s-38.187 85.333-85.333 85.333c-2.773 0-5.353-0.577-8.083-0.833 4.949 13.611 8.083 28.14 8.083 43.5 0 70.699-57.301 128-128 128-29.013 0-55.539-10.035-77-26.333-31.104 41.643-80.355 69-136.333 69z" />
<glyph unicode="&#xe904;" glyph-name="one-key" d="M192 832h640c35.346 0 64-28.654 64-64v-640c0-35.346-28.654-64-64-64h-640c-35.346 0-64 28.654-64 64v640c0 35.346 28.654 64 64 64z" />
<glyph unicode="&#xe905;" glyph-name="one-one" d="M549.218 21.333h-19.095c-111.153 0-214.822 56.017-275.738 148.992l-46.836 71.486c-33.24 50.735-23.425 118.293 22.877 157.472l48.8 41.291c5.566 4.71 8.774 11.631 8.774 18.923v345.837c0 38.292 31.042 69.333 69.333 69.333s69.333-31.041 69.333-69.333v-192c0 38.291 31.042 69.333 69.333 69.333s69.333-31.042 69.333-69.333v-32c0 38.291 31.042 69.333 69.333 69.333s69.333-31.042 69.333-69.333v-85.333c0 38.291 31.042 69.333 69.333 69.333s69.333-31.042 69.333-69.333v-218.001c0-35.177-10.628-69.534-30.492-98.564l-20.772-30.357c-54.697-79.942-145.321-127.744-242.185-127.744z" />
<glyph unicode="&#xe906;" glyph-name="oneplus" d="M0 800.427v-864.427h864.427v493.739h-96.256v-397.525h-672v672h397.568v96.128zM768.171 960v-159.573h-160.341v-96.256h160.341v-160.341h96.213v160.341h159.616v96.256h-160.341v159.573zM492.971 159.744v422.144h-84.992c0-29.099-9.728-50.731-24.619-64.171-15.659-12.672-38.827-18.645-66.389-18.645h-10.453v-69.333h91.008v-269.227h95.445z" />
<glyph unicode="&#xe907;" glyph-name="onesies" d="M149.333 512l-64 213.333c39.111 28.444 192 128 426.667 128s384-99.556 426.667-128l-64-213.333h-149.333v-341.333c0-85.333-64-149.333-149.333-149.333h-128c-85.333 0-149.333 64-149.333 149.333v341.333h-149.333z" />
<glyph unicode="&#xe908;" d="M0 960h1024v-1024h-1024v1024z" />
<glyph unicode="&#xe909;" d="M1024 960h-1024v-1024h1024v1024z" />
<glyph unicode="&#xe90a;" d="M768 106.347c-71.309-53.274-159.949-85.013-256-85.013-157.926 0-295.814 85.803-369.586 213.333h177.586" />
<glyph unicode="&#xe90b;" d="M682.667 839.164c150.69-65.84 256-216.203 256-391.164 0-77.715-20.777-150.577-57.079-213.333l-86.238 149.333" />
<glyph unicode="&#xe90c;" d="M87.44 405.333c-1.393 14.033-2.107 28.267-2.107 42.667 0 235.642 191.025 426.667 426.667 426.667l-86.236-149.333" />
<glyph unicode="&#xe90d;" d="M512 320c70.692 0 128 57.308 128 128s-57.308 128-128 128c-70.692 0-128-57.308-128-128s57.308-128 128-128z" />
<glyph unicode="&#xe90e;" d="M0 960h1024v-1024h-1024v1024z" />
<glyph unicode="&#xe90f;" d="M896 810.667h-768c-23.564 0-42.667-19.103-42.667-42.667v-640c0-23.565 19.103-42.667 42.667-42.667h768c23.565 0 42.667 19.102 42.667 42.667v640c0 23.564-19.102 42.667-42.667 42.667z" />
<glyph unicode="&#xe910;" d="M234.667 520.962l85.333 55.038v-256" />
<glyph unicode="&#xe911;" d="M618.667 320v256l170.667-256v256" />
<glyph unicode="&#xe912;" d="M469.333 533.333v-21.333" />
<glyph unicode="&#xe913;" d="M469.333 384v-21.333" />
<glyph unicode="&#xe914;" d="M0 960h1024v-1024h-1024v1024z" />
<glyph unicode="&#xe915;" d="M896 810.667h-768c-23.564 0-42.667-19.103-42.667-42.667v-640c0-23.565 19.103-42.667 42.667-42.667h768c23.565 0 42.667 19.102 42.667 42.667v640c0 23.564-19.102 42.667-42.667 42.667z" />
<glyph unicode="&#xe916;" d="M256 520.962l85.333 55.038v-256" />
<glyph unicode="&#xe917;" d="M661.333 520.962l85.333 55.038v-256" />
<glyph unicode="&#xe918;" d="M512 533.333v-21.333" />
<glyph unicode="&#xe919;" d="M512 384v-21.333" />
<glyph unicode="&#xe91a;" d="M0 960h1024v-1024h-1024v1024z" />
<glyph unicode="&#xe91b;" d="M938.667 789.333h-853.333v-640h320l106.667-106.667 106.667 106.667h320v640z" />
<glyph unicode="&#xe91c;" d="M256 554.667v-170.667" />
<glyph unicode="&#xe91d;" d="M426.667 618.667v-298.667" />
<glyph unicode="&#xe91e;" d="M597.333 512v-85.333" />
<glyph unicode="&#xe91f;" d="M768 554.667v-170.667" />
<glyph unicode="&#xe920;" glyph-name="onlyfans" d="M512 960c-282.752 0-512-229.248-512-512s229.205-512 512-512c282.752 0 512 229.248 512 512 0 282.795-229.248 512-512 512zM511.488 906.411c253.525 0.299 458.88-205.013 458.88-458.283s-205.355-458.624-458.581-458.581c-253.269 0-458.624 205.312-458.624 458.581 0 252.885 204.757 458.027 458.325 458.283zM497.835 711.552c-0.035 0-0.077 0-0.119 0-52.593 0-100.242-21.165-134.895-55.441l0.017 0.017c-34.675-33.677-56.192-80.74-56.192-132.828 0-0.058 0-0.115 0-0.173v0.009-41.771l-23.723-42.795v-61.611c0.099-57.911 24.010-110.218 62.461-147.668l0.045-0.044c38.696-37.99 91.779-61.44 150.34-61.44 0.096 0 0.192 0 0.288 0h38.214c56.149 0 110.080 22.059 150.187 61.44 38.56 37.462 62.511 89.782 62.592 147.697v61.668l-23.467 42.795v41.813c-0.064 52.139-21.617 99.231-56.276 132.906l-0.044 0.043c-34.636 34.26-82.286 55.424-134.878 55.424-0.072 0-0.144 0-0.216 0h0.011zM497.835 627.499h34.347c29.136-0.095 55.503-11.875 74.673-30.897l-0.007 0.007c19.84-19.285 31.061-45.781 31.147-73.472l0.128-43.093h-246.187v43.093c0.085 27.691 11.307 54.187 31.147 73.472 19.175 19.030 45.554 30.824 74.688 30.933h0.021zM517.632 405.803h1.28c65.451 0.981 83.2-89.771 22.144-113.493h-3.669v-49.323c0-0.035 0-0.077 0-0.119 0-7.553-3.909-14.193-9.815-18.006l-0.084-0.051h-21.803c-6.148 3.973-10.176 10.768-10.24 18.508v48.949c-61.013 23.723-43.307 114.475 22.187 113.493z" />
<glyph unicode="&#xe921;" glyph-name="onnx" d="M982.72 478.025c-2.146 0-4.292 0-6.434-0.538l-171.563 317.385c3.217 5.901 4.826 12.331 4.826 19.302 0 23.053-18.765 41.28-41.28 41.28-11.797 0-22.519-4.821-30.025-12.864l-342.042 68.087c-2.146 20.373-19.84 36.454-41.284 36.454-22.515 0-41.28-18.765-41.28-41.28 0-6.972 1.609-13.402 4.821-19.302l-266.453-382.255c-3.213 1.071-6.967 1.609-10.722 1.609-23.053 0-41.28-18.765-41.28-41.284 0-23.053 18.765-41.28 41.28-41.28h1.609l143.684-355.452c-2.146-5.363-3.755-11.26-3.755-17.152 0-23.057 18.765-41.284 41.284-41.284 11.793 0 22.515 4.821 30.020 12.864l431.582-42.351c4.288-18.231 20.907-31.095 40.209-31.095 23.053 0 41.284 18.765 41.284 41.28 0 10.189-3.755 19.84-9.651 26.807l218.202 378.505c2.146-0.538 4.288-0.538 6.972-0.538 23.053 0 41.28 18.765 41.28 41.284 0 23.053-18.227 41.813-41.28 41.813zM735.027 788.437c4.826-6.434 11.797-11.264 19.302-13.939l-65.408-493.773c-4.288-1.075-8.043-2.146-11.793-4.288l-359.206 312.021c1.071 3.217 1.609 6.972 1.609 10.726 0 2.679-0.538 5.359-0.538 8.038zM943.044 425.481l-220.885-151.723c-1.522 1.072-3.275 2.138-5.098 3.089l-0.261 0.124 65.941 498.069h0.538l168.346-310.955c-6.434-7.505-10.189-16.619-10.189-27.341 0-4.288 0.538-8.043 1.609-11.255zM272.35 639.932c-19.836-3.217-35.383-20.373-35.383-40.747v-2.679l-147.435-87.386 229.461 328.644zM287.364 558.438c5.359 1.075 10.722 3.755 15.010 6.972l356.523-309.879c-1.609-4.821-2.679-9.651-2.679-15.010v-2.146l-397.269-164.053c-5.897 8.576-15.010 15.010-25.732 17.152zM666.94 212.105c5.363-5.897 12.868-10.722 21.444-12.331l19.84-172.629c-8.576-4.292-15.014-11.264-19.302-19.302l-418.714 40.747zM715.729 202.991c13.939 6.967 23.053 20.907 23.053 36.992 0 3.755-0.538 6.972-1.609 10.722l202.121 138.859-204.8-355.456zM726.451 815.245l-421.931-183.893-4.826 3.221 53.611 229.999h1.609c14.477 0 27.345 7.505 34.85 18.761l336.683-67.012zM82.56 464.619c0 2.684-0.538 5.363-0.538 8.043l166.737 98.112c3.217-3.217 6.967-6.434 11.255-8.576l-54.14-465.899-136.717 337.22c8.043 7.509 13.406 18.765 13.406 31.095z" />
<glyph unicode="&#xe922;" glyph-name="onstar" d="M512 960c-282.795 0-512-229.205-512-512s229.205-512 512-512 512 229.205 512 512-229.205 512-512 512zM509.909 927.445c265.941 0 482.304-216.149 482.304-481.877 0-265.771-216.32-481.92-482.304-481.92-265.941 0-482.304 216.149-482.304 481.92 0 265.685 216.363 481.877 482.304 481.877zM509.909 915.2c-259.157 0-469.973-210.688-469.973-469.632 0-258.987 210.816-469.675 469.973-469.675s470.016 210.688 470.016 469.675c0 258.944-210.859 469.632-470.016 469.632zM711.723 776.533l24.832-72.533 76.8-2.731-61.44-45.995 21.12-73.771-62.805 44.117-63.744-42.837 22.613 73.259-60.501 47.275 76.8 1.195zM340.907 656.64c123.392 0 211.925-91.947 211.925-205.653v-1.152c0-113.664-89.685-206.805-213.077-206.805s-211.925 91.989-211.925 205.653v1.152c0 113.707 89.685 206.848 213.077 206.848zM339.755 575.573c-70.827 0-119.979-56.021-119.979-124.587v-1.152c0-68.523 50.304-125.653 121.131-125.653s119.979 55.979 119.979 124.501v1.152c0 68.565-50.261 125.696-121.131 125.696zM765.397 561.835c65.707 0 103.979-43.435 103.979-113.707v-198.229h-86.827v170.795c0 41.131-19.413 62.293-52.565 62.293-33.109 0-54.272-21.163-54.272-62.293v-170.795h-86.827v306.219h86.827v-43.435c20.011 25.728 45.696 49.152 89.685 49.152z" />
<glyph unicode="&#xe923;" glyph-name="ookla-speedtest" d="M512 874.667c-235.264 0-426.667-191.403-426.667-426.667 0-117.632 47.857-224.314 125.083-301.583l60.333 60.333c-61.824 61.781-100.083 147.127-100.083 241.25 0 188.203 153.131 341.333 341.333 341.333s341.333-153.131 341.333-341.333c0-94.123-38.259-179.469-100.083-241.25l60.333-60.333c77.227 77.269 125.083 183.951 125.083 301.583 0 235.264-191.403 426.667-426.667 426.667zM652.5 648.833l-225.833-200.833 85.333-85.333 200.833 225.833-60.333 60.333z" />
<glyph unicode="&#xe924;" glyph-name="opel" d="M1015.087 409.933c-5.291 0.341-107.307 6.827-107.904 6.912 0.896 10.965 1.408 21.931 1.408 32.896-1.451 219.686-180.689 396.668-400.422 395.217-183.723-1.195-342.724-128.064-384.678-306.94h-87.765c-0.010 0-0.023 0-0.035 0-4.913 0-9.288-2.307-12.1-5.897l-0.025-0.034-21.931-31.147c-4.011-4.821-0.171-12.672 6.144-12.373 6.144-0.384 106.027-6.528 107.904-6.699-0.874-9.819-1.385-21.279-1.408-32.854v-0.042c-0.043-219.733 178.052-397.892 397.786-397.935 185.566-0.034 346.513 128.218 387.908 309.103h87.723c0.007 0 0.015 0 0.024 0 4.935 0 9.322 2.344 12.109 5.98l0.027 0.036 22.571 31.019c4.143 5.376-0.422 14.037-7.334 12.757zM510.647 801.050c194.219-0.188 351.633-157.564 351.868-351.782 0-9.984-0.555-19.84-1.323-29.611l-294.097 18.645 127.659 87.723c5.291 3.371 2.603 12.288-3.712 12.075h-520.742c40.563 154.778 180.343 262.771 340.348 262.95zM510.647 97.404c-194.21 0.26-351.569 157.658-351.782 351.868 0 9.984 0 19.84 1.323 29.611l294.182-18.304-127.403-87.723c-5.291-3.499-2.56-12.373 3.84-12.16h520.311c-40.495-154.923-180.343-263.070-340.471-263.292z" />
<glyph unicode="&#xe926;" glyph-name="openaccess" d="M809.429 384.597c-7.374 17.318-15.084 31.937-23.826 45.842l0.786-1.34v257.195c0 0.183 0.001 0.399 0.001 0.615 0 75.382-30.665 143.602-80.202 192.866l-0.012 0.012c-49.269 49.548-117.484 80.214-192.861 80.214-0.207 0-0.414 0-0.622-0.001h-0.053c-0.225 0.001-0.493 0.001-0.76 0.001-75.335 0-143.515-30.631-192.766-80.118l-0.011-0.011c-49.549-49.276-80.214-117.496-80.214-192.879 0-0.246 0-0.492 0.001-0.738v0.038-37.419h109.653v37.419c0 43.776 17.067 84.992 48.085 116.053 29.534 29.652 70.398 48.001 115.547 48.001 0.178 0 0.356 0 0.534-0.001h-0.027c90.573-0.121 163.969-73.488 164.139-164.037v-149.691c-46.891 28.361-103.538 45.142-164.104 45.142-0.252 0-0.504 0-0.756-0.001h0.039c-0.137 0-0.3 0-0.462 0-88.998 0-169.555-36.139-227.797-94.543l-0.007-0.007c-58.411-58.25-94.55-138.807-94.55-227.804 0-0.163 0-0.325 0-0.488v0.026c0-0.15 0-0.327 0-0.505 0-88.977 36.122-169.517 94.501-227.756l0.006-0.006c58.262-58.487 138.871-94.678 227.932-94.678 0.133 0 0.265 0 0.398 0h-0.021c0.137 0 0.3 0 0.462 0 88.998 0 169.555 36.139 227.797 94.543l0.007 0.007c58.411 58.25 94.55 138.807 94.55 227.804 0 0.163 0 0.325 0 0.488v-0.026c0 43.563-8.533 85.845-25.387 125.696zM512 45.739c-117.677 0.146-213.036 95.49-213.205 213.146v0.016c0.146 117.692 95.514 213.060 213.192 213.205h0.014c117.701-0.121 213.084-95.504 213.205-213.193v-0.012c-0.146-117.683-95.519-213.041-213.194-213.163h-0.012zM603.52 257.92c0-49.956-40.497-90.453-90.453-90.453s-90.453 40.497-90.453 90.453v0c0 49.956 40.497 90.453 90.453 90.453s90.453-40.497 90.453-90.453v0z" />
<glyph unicode="&#xe927;" glyph-name="openai" d="M950.694 540.966c8.249 24.015 13.011 51.687 13.011 80.471 0 47.571-13.008 92.103-35.662 130.234l0.647-1.177c-45.371 77.921-128.508 129.463-223.684 129.463-19.152 0-37.816-2.087-55.778-6.046l1.711 0.317c-47.567 52.755-116.15 85.772-192.444 85.772-114.191 0-211.108-73.963-245.456-176.596l-0.53-1.826c-73.526-15.451-134.247-60.826-169.912-122.504l-0.656-1.23c-21.991-37.175-34.985-81.928-34.985-129.715 0-66.704 25.317-127.494 66.865-173.288l-0.192 0.215c-8.306-24.083-13.102-51.836-13.102-80.709 0-47.476 12.967-91.923 35.552-129.993l-0.648 1.179c45.418-77.934 128.596-129.479 223.812-129.479 19.179 0 37.87 2.091 55.857 6.058l-1.713-0.317c46.99-52.743 115.101-85.798 190.933-85.798 0.504 0 1.008 0.001 1.512 0.004h-0.078c0.071 0 0.154 0 0.238 0 114.496 0 211.597 74.473 245.506 177.622l0.52 1.826c73.516 15.477 134.228 60.845 169.912 122.508l0.657 1.23c21.663 36.992 34.455 81.456 34.455 128.909 0 66.583-25.186 127.284-66.55 173.095l0.202-0.227zM565.756 3.021c-0.090 0-0.196 0-0.302 0-46.725 0-89.531 16.782-122.718 44.648l0.294-0.24 6.054 3.43 203.874 117.683c10.044 5.968 16.687 16.735 16.755 29.059v287.451l86.187-49.86c0.851-0.438 1.459-1.243 1.619-2.201l0.002-0.018v-238.191c-0.233-105.815-85.95-191.531-191.743-191.761h-0.022zM153.566 179.038c-16.146 27.412-25.684 60.391-25.684 95.597 0 11.657 1.046 23.069 3.048 34.149l-0.174-1.162 6.059-3.635 204.075-117.683c4.767-2.844 10.514-4.525 16.653-4.525s11.886 1.681 16.804 4.608l-0.151-0.083 249.293 143.723v-99.516c-0.051-1.080-0.593-2.023-1.407-2.617l-0.010-0.007-206.498-119.095c-27.495-16.112-60.548-25.627-95.824-25.627-70.635 0-132.36 38.15-165.694 94.969l-0.49 0.904zM99.874 623.121c22.779 38.818 57.762 68.38 99.6 83.746l1.328 0.427v-242.227c-0.002-0.127-0.003-0.278-0.003-0.429 0-12.122 6.596-22.704 16.395-28.351l0.158-0.084 248.081-143.117-86.191-49.856c-0.439-0.238-0.96-0.377-1.515-0.377s-1.076 0.14-1.532 0.386l0.017-0.008-206.093 118.891c-57.685 33.883-95.798 95.62-95.798 166.259 0 35.241 9.486 68.267 26.044 96.662l-0.492-0.914zM807.983 458.607l-248.887 144.529 85.99 49.664c0.439 0.238 0.96 0.377 1.515 0.377s1.076-0.14 1.532-0.386l-0.017 0.008 206.093-119.095c57.747-33.768 95.922-95.473 95.922-166.094 0-81.852-51.283-151.726-123.47-179.244l-1.316-0.441v242.227c-0.385 12.22-7.219 22.762-17.196 28.371l-0.169 0.087zM893.773 587.593l-6.059 3.635-203.669 118.69c-4.796 2.861-10.578 4.553-16.755 4.553s-11.959-1.692-16.907-4.637l0.152 0.084-249.084-143.718v99.511c-0.010 0.088-0.015 0.191-0.015 0.295 0 0.963 0.482 1.813 1.218 2.323l0.009 0.006 206.093 118.895c27.496 16.113 60.549 25.628 95.825 25.628 106.020 0 191.966-85.946 191.966-191.966 0-11.478-1.007-22.721-2.939-33.645l0.169 1.156zM354.411 411.179l-86.187 49.655c-0.856 0.522-1.459 1.387-1.619 2.4l-0.003 0.019v237.581c0.142 105.912 86.034 191.716 191.966 191.716 46.816 0 89.719-16.759 123.035-44.605l-0.304 0.247-6.059-3.435-203.87-117.675c-10.044-5.968-16.687-16.735-16.755-29.059v-0.010zM401.242 512.102l111.019 63.991 111.228-63.991v-127.974l-110.822-63.987-111.219 63.987z" />
<glyph unicode="&#xe928;" glyph-name="openaigym" d="M1024 544.597v0.683c0 0.768-0.384 1.493-0.384 2.261-0.341 0.725-0.341 1.451-0.725 2.219 0 0.384-0.384 0.384-0.384 0.725-0.306 0.717-0.678 1.335-1.122 1.894l0.013-0.017v0.384c-0.384 0.725-1.109 1.109-1.877 1.835l-0.341 0.384c-0.768 0.384-1.493 1.109-2.261 1.493l-158.72 91.435v183.253c0 0.768 0 1.877-0.341 2.603v0.811c-0.080 0.829-0.339 1.583-0.739 2.242l0.013-0.024v0.341c-0.427 0.725-0.768 1.493-1.152 1.835 0 0.427-0.341 0.427-0.341 0.427-0.422 0.703-0.917 1.306-1.487 1.829l-0.006 0.005c-0.768 0.341-1.109 1.109-1.877 1.451-0.341 0-0.341 0.427-0.725 0.427l-0.384 0.341-166.144 96.256c-2.079 1.23-4.581 1.957-7.253 1.957s-5.175-0.727-7.321-1.994l0.067 0.037-158.72-91.435-158.251 91.435c-2.079 1.23-4.581 1.957-7.253 1.957s-5.175-0.727-7.321-1.994l0.067 0.037-165.803-95.872c-0.427 0-0.427-0.427-0.427-0.427-0.341 0-0.341-0.341-0.725-0.341-0.725-0.384-1.109-1.109-1.835-1.493-0.598-0.512-1.097-1.119-1.476-1.801l-0.017-0.033-0.384-0.384c-0.341-0.725-0.725-1.109-1.109-1.877v-0.341c-0.384-0.768-0.384-1.493-0.725-2.219v-0.768c0-0.725-0.384-1.835-0.384-2.56v-183.296l-159.061-91.776c-0.768-0.427-1.493-1.109-2.261-1.493l-0.341-0.384-1.877-1.835v-0.427c-0.384-0.725-0.725-1.067-1.109-1.835 0-0.341-0.384-0.341-0.384-0.725-0.386-0.636-0.646-1.39-0.724-2.197l-0.002-0.022c-0.384-0.768-0.384-1.493-0.384-2.304v-192.896c-0.001-0.049-0.001-0.107-0.001-0.166 0-5.272 2.812-9.887 7.019-12.427l0.065-0.036 158.72-91.435v-183.253c-0.001-0.057-0.001-0.124-0.001-0.191 0-5.255 2.794-9.857 6.977-12.402l0.064-0.036 165.76-95.915c0.384-0.341 0.768-0.341 1.109-0.725 0 0 0.384 0 0.384-0.384 0.384 0 0.725-0.341 1.109-0.341s0.384 0 0.768-0.427c0.341 0 0.725 0 1.109-0.341h2.603c2.003 0.014 3.907 0.42 5.645 1.146l-0.099-0.037c0.768 0.384 1.109 0.384 1.877 0.768l158.72 91.435 158.72-91.435c0.725-0.384 1.109-0.768 1.835-0.768 1.639-0.689 3.544-1.095 5.541-1.109h2.651c0.341 0 0.725 0 1.109 0.384 0.341 0 0.341 0 0.725 0.384 0.384 0 0.768 0.341 1.109 0.341 0.384 0 0.384 0 0.384 0.384 0.384 0 0.725 0.384 1.109 0.725l165.76 95.915c4.271 2.576 7.084 7.192 7.084 12.464 0 0.058 0 0.116-0.001 0.175v-0.009 183.253l158.72 91.435c4.247 2.581 7.041 7.184 7.041 12.438 0 0.067 0 0.134-0.001 0.201v-0.010 191.445c0.384 0.427 0.384 0.768 0.384 0.768zM519.253 78.080s-0.384 0-0.384 0.384c-0.384 0.341-0.725 0.341-1.493 0.725-0.341 0-0.725 0.384-1.109 0.384s-0.725 0.384-1.493 0.384c-0.341 0-1.109 0.341-1.493 0.341h-2.944c-0.384 0-1.109 0-1.493-0.341-0.384 0-0.725 0-1.493-0.427-0.384 0-0.725-0.341-1.109-0.341-0.384-0.384-0.725-0.384-1.493-0.725 0 0-0.384 0-0.384-0.384l-143.787-83.243v157.952l151.253 87.339 151.253-87.339v-157.952zM187.733 627.499c0.725 0.725 1.067 1.109 1.451 1.109 0.384 0.341 0.768 0.341 1.109 0.725l1.109 1.109c0.427 0.384 0.768 0.768 0.768 1.109 0.384 0.427 0.384 0.768 0.725 1.109 0.384 0.427 0.384 0.768 0.768 1.152 0.341 0.341 0.341 0.725 0.341 1.451 0 0.427 0.427 0.768 0.427 1.493 0 0.384 0 0.768 0.341 1.493v168.021l136.747-79.232v-174.677l-151.253-87.296-136.747 79.147zM511.829 814.421l151.253-87.339v-157.909l-144.213 83.243s-0.384 0-0.384 0.384c-0.341 0.384-0.725 0.384-1.451 0.725-0.427 0-0.768 0.384-1.152 0.384-0.341 0-0.725 0.384-1.451 0.384-0.427 0-0.768 0.341-1.493 0.341h-2.987c-0.384 0-1.109 0-1.493-0.341-0.341 0-0.725 0-1.493-0.384-0.341 0-0.725-0.384-1.109-0.384-0.341-0.341-1.109-0.341-1.493-0.725 0 0-0.341 0-0.341-0.384l-143.488-83.243v157.867zM511.829 273.621l-151.296 87.339v174.72l151.296 87.339 151.253-87.339v-174.72zM194.773 440.149l136.789 79.189v-168.405c0-0.341 0-0.725 0.341-1.493 0-0.341 0.384-0.725 0.384-1.451 0-0.427 0.384-0.768 0.384-1.493 0.341-0.384 0.341-0.768 0.725-1.109 0.384-0.427 0.384-0.768 0.768-1.152 0.341-0.341 0.725-0.725 0.725-1.109l1.109-1.109c0.384-0.384 0.768-0.725 1.109-0.725 0.384-0.384 0.768-0.768 1.109-0.768l0.427-0.341 144.213-83.285-136.832-79.147-151.253 87.339zM677.973 177.749l-136.789 79.147 144.597 83.627c0.341 0.384 0.725 0.768 1.109 0.768 0.341 0.341 0.725 0.341 1.109 0.725l1.109 1.109c0.384 0.384 0.725 0.768 0.725 1.109 0.427 0.427 0.427 0.768 0.768 1.152 0.384 0.341 0.384 0.725 0.725 1.109 0.384 0.341 0.384 0.725 0.384 1.493 0 0.341 0.384 0.725 0.384 1.451 0 0.427 0 0.768 0.341 1.493v168.405l136.789-79.189v-174.677zM843.733 465.067l-151.296 87.339v174.635l136.789 79.189v-168.363c0-0.341 0-0.725 0.384-1.451 0-0.427 0.384-0.768 0.384-1.493 0-0.384 0.341-0.768 0.341-1.493 0.427-0.384 0.427-0.768 0.768-1.109 0.341-0.384 0.341-0.768 0.725-1.109 0.384-0.427 0.768-0.768 0.768-1.109 0.341-0.427 0.725-0.768 1.109-1.152 0.341-0.341 0.725-0.725 1.109-0.725 0.384-0.384 0.725-0.725 1.109-0.725l0.384-0.427 144.213-83.2zM677.973 910.336l136.747-79.189-136.747-79.147-136.789 79.147zM346.027 910.336l136.789-79.189-136.789-78.763-136.747 78.763zM29.013 518.955l136.747-79.189v-157.952l-136.747 79.147zM331.52-5.12l-136.747 79.147v157.995l136.789-79.189zM829.227 73.643l-136.789-79.147v157.952l136.789 79.189zM995.029 360.96l-136.789-79.147v157.952l136.789 79.189z" />
<glyph unicode="&#xe929;" glyph-name="open-an-account" d="M618.667 576c0-58.91-47.756-106.667-106.667-106.667s-106.667 47.756-106.667 106.667c0 58.91 47.756 106.667 106.667 106.667s106.667-47.756 106.667-106.667z" />
<glyph unicode="&#xe92a;" glyph-name="openapiinitiative" d="M897.664 960c-69.713-0.018-126.219-56.536-126.219-126.251 0-20.442 4.858-39.749 13.483-56.83l-0.331 0.723-275.072-275.072c-16.38 8.316-35.715 13.188-56.188 13.188-69.75 0-126.293-56.543-126.293-126.293s56.543-126.293 126.293-126.293c69.75 0 126.293 56.543 126.293 126.293 0 20.44-4.856 39.746-13.476 56.827l0.331-0.723 275.072 275.072c16.352-8.287 35.652-13.141 56.085-13.141 69.726 0 126.251 56.524 126.251 126.251 0 69.704-56.488 126.214-126.183 126.251h-0.004zM453.461 842.88c-3.072 0-6.101-0.128-9.131-0.171-3.072-0.085-6.101-0.085-9.173-0.213-19.072-0.768-38.101-2.731-56.96-5.888l-1.28-0.213-7.893-1.408-4.48-0.853c-6.29-1.19-10.449-2.107-14.578-3.103l2.247 0.458-1.365-0.341c-41.24-9.763-77.511-23.687-111.248-41.729l2.448 1.196-6.613-3.797c-2.688-1.451-5.333-2.987-7.979-4.48-1.963-1.152-3.968-2.176-5.973-3.371h-0.043l-0.427-0.213-1.536-0.853v-0.085l4.736-7.851 134.4-223.147c4.355 2.682 9.669 5.555 15.137 8.158l1.076 0.461c20.283 9.912 43.977 16.268 69.003 17.602l0.458 0.019c3.029 0.171 6.101 0.341 9.131 0.341zM471.723 842.453v-270.208c13.867-1.451 27.605-4.395 40.96-8.917l198.827 198.827c-7.381 5.12-14.848 10.112-22.528 14.805l-1.109 0.64c-2.389 1.493-4.779 2.859-7.168 4.267l-4.181 2.389-4.224 2.347c0.392-0.092-1.996 1.214-4.394 2.502l-2.902 1.424-1.152 0.597c-16.794 9.041-36.864 17.926-57.633 25.339l-3.167 0.986c-29.44 10.283-59.861 17.493-90.795 21.547l-3.797 0.512-3.84 0.427c-1.081 0.172-3.57 0.459-6.070 0.713l-11.978 0.993c-2.776 0.241-6.551 0.47-10.346 0.623l-0.534 0.017c-1.323 0.128-2.645 0.128-3.968 0.171zM204.032 768.085c-21.757-14.229-40.713-29.146-58.273-45.54l0.246 0.228 191.104-191.104c2.091 1.707 4.181 3.328 6.357 4.949l-0.469 0.768zM132.779 710.059c-2.133-2.133-4.181-4.395-6.272-6.571l-6.357-6.613c-14.080-15.232-26.88-31.147-38.485-47.701l-1.664-2.389c-2.144-2.999-5.182-7.533-8.139-12.124l-1.077-1.786c-41.224-63.856-67.001-141.152-70.371-224.222l-0.029-0.887-0.256-9.173-0.128-9.131h269.525c0 3.072 0.299 6.101 0.427 9.131 0.213 3.072 0.256 6.144 0.555 9.173 3.456 35.072 17.024 69.333 40.619 98.133 1.92 2.347 4.096 4.523 6.144 6.827 2.048 2.219 3.968 4.565 6.144 6.741zM826.325 647.595l-198.955-198.955c4.523-13.312 7.467-27.051 8.96-40.917h270.165l-0.171 4.011c-0.402 7.978-0.89 14.712-1.512 21.408l0.146-1.952-0.213 2.219c-0.553 5.894-0.946 9.426-1.372 12.948l0.262-2.665v0.384l-1.408 10.24v0.384c-3.585 24.515-8.454 46.031-14.789 66.91l0.837-3.209-0.128 0.427c-2.258 8.039-3.279 11.28-4.323 14.511l1.336-4.783-0.427 1.28c-2.224 7.143-3.225 10.034-4.247 12.914l1.303-4.21-0.853 2.347c-2.499 7.516-4.71 13.235-7.128 18.845l0.6-1.565c-2.085 5.474-3.422 8.67-4.807 11.839l0.839-2.154c-2.685 6.583-3.587 8.605-4.499 10.623l1.811-4.479-1.579 3.456c-2.643 6.009-3.786 8.406-4.944 10.794l1.531-3.498-1.024 2.219-4.096 8.277-0.597 1.152c-2.814 5.611-4.405 8.573-6.026 11.515l1.247-2.47-0.171 0.341c-8.984 16.455-17.52 30.117-26.737 43.268l0.966-1.454zM637.312 389.461c0-3.029-0.256-6.059-0.427-9.131-0.128-3.072-0.213-6.101-0.512-9.131-3.799-37.688-18.504-71.364-40.869-98.489l0.25 0.313c-1.92-2.347-4.096-4.565-6.144-6.827s-3.968-4.608-6.144-6.784l190.592-190.592c2.176 2.176 4.224 4.437 6.315 6.613 2.133 2.219 4.267 4.395 6.315 6.613 14.123 15.275 27.008 31.275 38.613 47.872l1.365 1.963 4.181 6.144 3.627 5.547 1.707 2.688c41.158 63.816 66.889 141.053 70.244 224.055l0.028 0.884c0.128 3.029 0.171 6.101 0.256 9.131 0.043 3.029 0.171 6.101 0.171 9.131zM0.427 371.2l0.171-3.968 0.427-7.637 0.213-3.243 0.725-8.789 0.213-1.963c0.299-3.243 0.64-6.528 1.024-9.728l0.128-0.939c0.649-5.623 1.145-9.24 1.688-12.842l-0.28 2.261c3.072-21.547 7.765-42.88 13.952-63.872l0.085-0.256c0.939-3.285 2.005-6.571 3.029-9.813l0.171-0.597 0.213-0.597c3.524-10.984 5.741-17.197 8.046-23.368l-1.518 4.637 1.28-3.413 2.517-6.315c2.067-5.455 3.404-8.665 4.791-11.849l-0.823 2.121 2.645-5.973 1.621-3.584 3.328-7.211 1.152-2.304c4.252-8.933 7.453-15.101 10.79-21.184l-1.19 2.368 1.067-1.835 231.595 139.52c-8.554 17.572-14.526 38-16.786 59.534l-0.068 0.797h-1.067zM21.973 249.771l-8.789-2.475 0.085-0.213zM296.107 294.656l-231.040-139.179c3.541-5.931 7.253-11.648 11.051-17.323l0.341-0.597 0.171-0.213 0.341-0.597h0.043c0.299-0.512 0.597-0.939 0.939-1.365l0.043-0.085v-0.043c5.045-7.439 9.226-13.234 13.537-18.924l-0.822 1.132 0.256-0.341c4.711-6.271 8.766-11.381 12.934-16.395l-0.56 0.694 1.408-1.707c1.835-2.219 3.669-4.395 5.547-6.528l2.432-2.773 4.779-5.419 2.731-2.944 1.237-1.323 3.541-3.84 1.493-1.493c2.091-2.176 4.181-4.395 6.357-6.528l190.549 190.549c-4.197 4.228-8.175 8.692-11.905 13.365l-0.255 0.331c-5.192 6.322-10.202 13.356-14.72 20.724l-0.469 0.823zM569.856 247.253c-2.133-1.707-4.267-3.371-6.4-4.949l0.469-0.768 138.965-230.699c6.443 4.224 12.8 8.533 19.029 13.099 13.44 9.899 26.453 20.651 38.997 32.256l-190.293 190.293zM337.024 247.125l-190.933-190.933c2.443-2.277 5.151-4.729 7.894-7.142l0.426-0.367c0.939-0.853 1.835-1.707 2.773-2.475l6.485-5.547c2.235-1.883 5.22-4.314 8.236-6.707l0.937-0.717 0.981-0.725 8.149-6.315 0.341-0.213c11.435-8.533 23.339-16.597 35.584-24.064l1.28-0.768 6.997-4.139 4.309-2.432c2.629-1.608 6.398-3.708 10.231-5.704l1.289-0.611c0.341-0.171 0.683-0.427 1.067-0.555 6.912-3.627 13.952-6.997 21.035-10.24l6.741 16.427 96.085 233.301c-11.368 6.121-21.161 12.727-30.23 20.181l0.321-0.256zM548.267 232.064c-2.603-1.579-5.291-2.987-7.979-4.437-25.221-13.813-55.256-21.937-87.189-21.937-18.672 0-36.695 2.778-53.679 7.942l1.305-0.341c-2.944 0.853-5.76 2.005-8.661 3.029-2.859 1.024-5.803 1.877-8.619 3.072l-102.613-249.216 0.725-0.299c0.223-0.105 0.492-0.207 0.769-0.288l0.041-0.010 0.213-0.128c2.219-0.896 4.523-1.707 6.784-2.56 2.859-1.152 5.675-2.261 8.533-3.285l4.352-1.707c29.952-10.539 61.013-17.92 92.501-22.101l3.712-0.512 11.179-1.237c2.332-0.28 6.041-0.615 9.767-0.882l0.985-0.057c0.981-0.043 2.048-0.043 3.029-0.128l7.851-0.469 4.779-0.213c4.037-0.193 8.768-0.304 13.524-0.304 0.615 0 1.23 0.002 1.845 0.006h2.039c0.132 0 0.287 0 0.443 0 26.868 0 53.192 2.328 78.781 6.794l-2.723-0.393 7.893 1.451 4.48 0.853 4.651 0.981 7.68 1.707 1.365 0.341c41.239 9.759 77.51 23.684 111.246 41.728l-2.446-1.195c2.219 1.195 4.437 2.56 6.656 3.797 2.688 1.451 5.333 2.987 7.979 4.48 1.835 1.024 3.712 2.005 5.547 3.115h0.043l0.085 0.085 0.171 0.085 0.299 0.171 1.792 1.067-4.693 7.808-4.693 7.851zM687.445 1.067v-0.043zM685.099-0.341h-0.085z" />
<glyph unicode="&#xe92b;" glyph-name="openbadges" d="M786.347 167.083l-352.64 202.624 45.995 27.349 30.677 17.536 30.677-17.493 321.963-184.021zM648.363 87.168l-351.573 203.691 76.672 43.819 351.573-202.667-76.672-44.843zM511.445 8.32l-351.573 202.581 76.672 43.819 351.573-202.624zM129.28 352.171l351.573 202.581v-88.704l-306.645-175.232-44.928-26.24v87.637zM129.28 510.976l351.573 202.624v-88.747l-351.573-201.515v87.637zM129.28 669.781l351.573 202.624v-87.637l-351.573-202.624v87.637zM542.165 872.405l76.672-43.819v-406.315l-76.672 43.776v406.4zM679.083 793.557l76.629-43.819v-406.315l-76.672 43.819v406.315zM817.067 713.557l76.629-43.776v-406.315l-76.629 43.819v406.315zM956.16 704.811l-63.573 35.072-76.629 43.776-60.245 36.139-245.333 140.203-30.677-17.536-411.776-237.653v-512.512l30.635-17.493 412.885-238.805 444.629 254.080z" />
<glyph unicode="&#xe92c;" glyph-name="openbsd" d="M584.32 889.472c-8.619-20.053-6.229-43.52-12.501-64.384-1.451-4.779-6.229-19.285-13.141-18.304-14.208 2.048-6.827 29.355-23.253 29.867l5.12-39.851c-24.619-3.115-21.248 35.371-31.275 50.987-11.52 18.048-14.293-8.192-13.525-16.213 0.469-5.205 1.536-10.325 2.133-15.488 1.109-8.96 1.365-16.768 0.213-25.728-23.552 0.299-14.933 31.275-32.171 36.011l1.28-37.291c-26.112 0.213-37.973 23.765-49.451 43.733-4.779 8.363-11.136 24.491-22.613 19.328 5.376-23.211 18.048-45.397 19.371-69.547 0.299-6.187-5.547-22.016-14.208-19.115-20.011 6.741-17.323 43.008-33.963 52.523-3.413 1.92-8.704 0.256-12.373 0.085 0-19.2 8.448-42.496 15.189-60.501 1.451-3.84 5.504-17.493-2.944-17.195-15.061 0.427-18.816 29.653-34.133 26.24 1.877-7.893 6.528-14.293 9.173-21.888 1.579-4.651 4.523-9.344 5.376-14.165 1.877-10.539-11.477-11.392-18.432-9.387-16.384 4.864-28.16 18.261-39.893 29.995-3.243 3.243-11.819 14.677-17.237 9.472-6.016-5.76 5.803-15.915 9.173-19.797 9.984-11.563 20.821-25.131 25.6-39.893 2.091-6.315 2.475-15.36-3.84-19.712-6.229-4.267-16.384 3.541-21.419 6.827-15.445 10.197-30.763 27.904-50.176 28.331l-4.565-11.563 12.373-16.725 32.085-36.053-37.333 15.445c1.493-9.771 24.875-21.589 20.267-31.659-2.731-5.973-16.213-6.059-21.547-5.291-19.029 2.731-32.512 16.896-50.219 21.973-15.616 4.48-12.715-7.68-3.84-14.635 3.072-2.432 6.016-4.992 9.003-7.552 5.333-4.608 10.453-9.344 15.445-14.336 7.808-7.808 14.635-16.128 21.888-24.448l-37.333 1.28v-2.56l36.053-16.725-6.443-25.728c-10.411 0-18.859 2.859-28.331 6.955-6.443 2.816-13.227 7.467-20.565 6.955-8.789-0.597-13.995-8.619-8.107-16.085 8.789-11.221 26.453-17.579 37.675-26.325 4.267-3.328 10.539-9.045 5.675-14.72-9.6-11.264-35.499 3.157-48.128-0.555v-2.56c11.733-6.869 35.797-10.795 42.667-23.424 5.461-9.856-9.899-32.256-20.779-31.403-9.685 0.811-18.603 11.733-25.728 17.493-17.109 13.739-35.413 29.867-55.381 39.381-34.176 16.213-68.139-9.643-95.232-26.539 3.456-10.923 17.152 0.725 25.728-1.237 11.563-2.603 20.352-13.355 27.776-21.888 35.84-41.301 65.835-88.064 79.232-141.611 3.541-14.080 9.557-30.933-0.981-43.563-2.816-3.413-7.040-3.84-10.155-6.613-2.347-2.133-2.219-5.035 0.981-6.016 5.888-1.835 14.507 0.896 20.267 2.304 18.901 4.565 40.491 14.763 49.067 33.28 5.333 11.563 7.211 34.005 20.48 38.613 2.901-12.373 16.811-28.715 15.488-41.173-1.237-11.051-12.885-23.893-19.669-32.043-2.432-2.901-8.235-9.259-4.779-13.44 3.499-4.139 10.667 4.779 12.8 6.827 9.771 9.216 31.147 23.808 36.907 2.645 5.035-18.432-11.136-48.213-19.2-64.384-2.304-4.48-12.672-18.56-8.619-23.595 4.693-5.76 14.421 9.301 16.512 12.032 8.107 10.624 36.523 42.112 51.627 30.805 18.389-13.824 12.032-23.68 5.077-42.411-1.963-5.248-9.216-18.475-4.267-23.467 4.736-4.864 11.008-0.427 13.44 4.181 4.437 8.405 16.341 33.28 28.203 26.923 7.467-3.968 18.816-10.709 23.168-18.133 6.741-11.605 0.853-34.773-0.939-47.403-1.024-7.253-8.832-29.952-2.347-35.2 5.973-4.821 10.837 9.728 12.629 13.312 6.357 12.587 13.653 25.472 23.040 36.053 3.413 3.797 8.192 10.112 13.952 9.045 29.867-5.589-0.64-35.371 11.648-50.56 2.475-3.072 9.173-2.859 12.8-3.541l15.445 39.893c7.851-2.987 19.413-4.053 25.216-10.581 4.864-5.461 5.845-14.677 7.253-21.589 3.925-19.371 6.059-38.229 3.584-57.899 2.432-1.792 6.315-5.888 9.6-3.755 4.139 2.645 4.693 13.44 6.101 17.92 4.523 14.165 11.477 27.733 17.92 41.173 4.224 8.832 15.787 18.219 24.107 6.059 8.533-12.459 5.12-34.304 10.496-48.555 13.653 6.741 15.147 35.2 15.445 48.939l17.707-2.603 10.667-21.888 19.2-55.339c9.984 3.84 6.827 22.955 7.979 32.171 1.493 12.501 4.395 37.632 13.568 46.933 3.669 3.712 11.008 4.053 15.787 5.845 5.504-13.312 8.491-28.416 15.104-41.173 2.56-4.949 8.448-10.325 14.379-7.253 5.675 2.901 5.461 9.557 4.736 14.933-1.792 13.355-4.821 26.453-5.888 39.936 25.515 1.792 40.533-18.816 56.533-36.053 6.187-6.613 11.563-15.445 20.693-18.005l-13.227 38.613-7.339 36.053c9.259 3.84 28.843 22.784 38.613 20.053 14.507-4.139 25.6-44.629 43.648-35.115 7.68 4.053 3.755 10.965 0.128 16.341-5.376 8.021-21.589 27.264-19.84 37.291 1.28 7.467 13.824 16.171 21.077 16.085 16.683-0.256 45.696-12.971 55.339-26.368l11.605 1.28c-1.707 23.040-36.267 33.579-41.216 56.661-0.2 0.985-0.315 2.118-0.315 3.278 0 1.441 0.177 2.841 0.51 4.18l-0.025-0.119c3.669 14.805 12.544 8.32 21.76 4.352 2.859-1.237 9.088-4.395 11.477-0.853 2.56 3.883-2.048 9.045-3.712 12.331-3.499 6.656-6.656 14.379-5.205 21.888 12.032-3.157 19.413-10.325 29.611-17.067 2.389-1.621 7.68-5.589 10.709-3.413 3.2 2.389-1.536 7.125-3.029 8.875-4.523 5.248-18.432 17.92-17.067 25.6 0.939 5.205 9.685 10.752 13.227 14.293 11.776 11.776 25.173 23.723 34.773 37.333h1.28c22.699-26.496 93.995-7.936 84.907 32.171-5.632-0.811-10.923-5.248-16.725-3.285-25.344 8.747-19.2 49.365-47.616 49.621-2.091 26.453-12.715 52.907-25.557 75.947-5.888 10.539-18.091 20.181-22.4 30.933-2.347 5.973-1.963 15.36-2.219 21.845 14.891 2.304 7.552 17.365 2.133 25.728-6.059 9.301-12.459 20.352-20.267 28.16-9.643 9.685-23.979 15.957-22.741 32.341 1.152 15.232 27.392 13.269 31.872 27.008-7.808-0.341-15.488-2.261-23.168-3.541-19.157-3.2-22.485 3.243-13.525 20.267 7.808 14.891 20.224 26.155 31.147 38.613 3.541 3.968 14.336 13.056 8.747 18.816-4.565 4.779-12.203-2.475-16.085-5.077-14.208-9.387-30.080-16.384-46.336-21.419-4.821-1.493-19.115-7.083-20.736 1.493-2.176 11.605 19.755 13.739 16.853 26.795-8.747-2.091-26.027-15.957-34.432-9.515-10.155 7.68 4.736 27.435 6.357 36.523 1.621 9.216-5.803 9.557-11.008 3.84-1.835-2.048-3.456-4.267-5.12-6.4-2.987-3.712-5.376-7.253-7.253-11.563-21.077 12.288 18.773 26.581 11.307 37.973-2.688 4.053-7.637 0-10.027-2.133-4.992-4.352-23.808-26.027-27.904-10.112-4.523 17.579 4.608 38.741 9.387 55.339 1.195 4.352 6.784 16.043 1.365 19.157-7.893 4.523-11.349-10.795-13.227-15.317-6.215-14.17-15.104-26.122-26.118-35.694l-0.122-0.104c-3.669-3.285-9.899-9.6-15.36-8.107-7.979 2.176-8.021 24.32-7.765 31.061 0.128 3.2 1.92 8.747-1.195 11.093-4.096 3.029-6.272-3.072-6.827-5.973-2.048-9.472-7.936-36.523-21.973-18.773-12.715 16.043 6.955 49.365-18.944 56.107l-14.165-45.056c-16.981 3.712-13.227 27.989-9.003 41.216l-7.723 2.56c-1.55-6.245-3.188-11.397-5.103-16.412l0.324 0.967c-6.827-19.243-16-22.997-23.083-1.28-5.419 16.555-3.499 34.432-6.187 51.499-1.067 6.784-1.707 13.653-8.448 16.725zM585.6 850.859c6.528-15.531-0.341-34.987 10.112-50.176 10.667-15.531 30.549-7.168 43.52-16.939 4.608-3.456 0.939-10.923-0.299-15.275-4.267-14.805-11.861-25.771-19.84-38.613 27.947 14.293 37.333 55.040 41.173 83.627h1.28c-1.109-25.429-0.299-50.432 0-75.904 0.128-11.52-1.579-24.832 11.605-27.008v59.136c13.781-3.968 34.475-21.419 49.451-16.256 7.637 2.603 14.592 11.819 19.925 17.536 4.011 4.352 7.467 9.045 10.411 14.165h1.28l-5.12-41.173-12.885 2.56 28.288-20.181 11.136-9.643-8.533-12.544-37.333-27.136c27.179 4.011 40.875 24.064 60.501 39.893-6.4-26.88-20.949-53.845-14.165-82.347h1.28l15.445 61.781c11.691-5.547 15.787-20.309 27.008-27.008 16.341-9.728 39.211 8.704 54.059 14.123-9.685-13.739-24.32-23.381-27.008-41.173l-11.605 5.12c10.069-25.856 22.144-50.773 26.453-78.507 3.968-25.344-1.024-50.475 0.683-75.947 0.853-11.733 5.675-22.059 7.637-33.451-24.021-8.149-28.416-41.813-51.499-52.736 1.835 8.021 4.693 16.085 4.693 24.448 0 5.973-2.816 12.032-1.28 18.005 3.115 11.819 13.397 21.675 17.579 33.451 6.485 18.347 2.133 35.627-0.384 54.059l12.843-1.28-32.341 50.219-16.043 24.448 5.931 16.725c-32.512-25.003-79.659-50.688-79.787-97.835l11.563 3.883 3.84-28.331-18.005-2.56v-2.56c15.061-4.267 30.805-6.357 45.056-13.056 10.411-4.864 21.931-11.307 29.099-20.437 23.893-30.293 4.779-77.568-13.227-105.515-9.088-14.080-25.344-27.051-31.317-42.496 16.299 3.925 24.619 19.499 33.792 32.171 3.883 5.419 7.253 12.928 13.867 15.445 10.24 3.84 13.653-15.104 15.829-21.845 2.773-8.533 9.301-23.296 7.68-32.213-3.029-17.109-17.707-28.245-14.507-47.616 7.083 8.619 9.259 25.771 20.565 29.952 7.253 2.645 14.805-4.053 21.888-5.12 15.36-2.261 31.147 3.499 42.496 13.909 12.16 11.221 20.48 29.269 17.408 46.208-1.835 10.24-7.552 20.309-6.827 30.891 0.512 8.533 6.315 15.445 9.387 23.168 7.381 18.219 6.485 38.912-10.965 50.731-4.382 2.98-9.609 5.064-15.25 5.865l-0.195 0.023c1.408 9.472 11.264 30.123 22.613 17.835 8.021-8.619 12.373-23.808 16.896-34.56 16.597-39.168 16.725-85.589-6.955-122.24-16.811-26.027-43.52-47.36-66.048-68.267l-8.96 25.771h-2.603c-2.987-15.36 7.893-32.939 14.165-46.336-14.080 3.2-27.52 17.707-42.496 15.445 4.224-7.253 31.915-24.405 10.325-32.171 0.128-6.315-4.693-10.667-8.533-15.445-8.576-10.581-19.371-26.368-32.683-30.891l-24.448 64.341h-1.28c3.584-28.203 13.397-55.68 26.027-81.067 6.571-13.099 17.195-26.069 21.589-39.893-7.979 6.784-13.056 17.621-19.883 25.728-12.214 14.034-25.516 26.524-39.971 37.583l-0.648 0.476c-9.685 7.552-19.2 16.043-32.171 14.72 14.72-13.227 37.035-20.267 35.627-45.056-0.427-7.040-8.235-10.112-13.739-12.629-14.464-6.613-28.587-13.739-43.776-18.688-4.181-1.365-11.904-5.12-16.299-3.712-4.693 1.579-4.139 11.819-4.651 15.744-1.579 12.16 5.163 43.861-7.339 48.896-5.461-43.093 5.632-82.304 8.96-124.843h-1.28c-7.253 31.445-18.731 66.475-35.755 93.952-4.693 7.552-14.635 25.472-24.704 23.168l26.453-46.336 0.555-19.627-19.285-3.413-55.339-1.408c2.005 15.915 5.547 31.829 8.533 47.616 0.597 3.456 3.157 13.909-3.328 13.909-5.973 0-7.211-17.408-8.064-21.632-4.608-23.125-8.704-47.189-8.747-70.827h-1.28c0 38.955-17.493 73.813-33.451 108.16-4.437-6.613 1.749-16.085 3.669-23.168 4.224-15.829 4.821-31.445 2.773-47.616-26.112 5.035-54.4 11.861-78.507 23.168 6.357 15.232 24.576 37.931 24.448 54.059-23.637-23.723-34.304-56.96-46.336-87.552h-1.28l5.12 61.781-8.96 52.779c-5.632-5.675-2.56-17.024-1.707-24.448 1.408-11.733 0.64-29.355-8.021-38.4-4.779-4.992-9.643-0.597-14.763 1.451-14.293 5.803-24.832 15.36-37.333 24.064-4.437 3.072-12.501 6.4-11.947 12.885 1.365 18.475 27.989 27.221 28.672 43.776-30.72-13.227-45.312-46.421-69.504-66.987 7.936 33.493 33.365 72.661 27.051 108.16-6.485-3.584-6.187-12.587-7.893-19.328-4.259-15.679-9.912-29.36-17.034-42.108l0.48 0.935c-17.067 9.856-30.72 26.581-41.941 42.496-3.115 4.352-9.941 11.093-10.027 16.725-0.085 5.461 6.187 11.691 9.6 15.445 10.411 11.307 23.040 19.84 37.205 25.728-10.112 6.272-30.123-8.533-41.173-11.605 7.467 15.787 27.733 31.232 21.888 50.219-16.768-13.099-28.16-41.387-39.893-59.221h-1.28l-24.491 54.059 32.171-11.563c0.981 11.52-15.36 15.915-24.448 18.005 5.376 13.995 20.309 24.661 16.725 41.173h-2.56c-3.712-11.947-11.477-32.384-24.448-36.011l-3.84 20.565h-1.28c-5.077-10.795 1.237-19.072-1.707-29.312-1.579-5.333-9.259-4.523-11.947-9.472-3.627-6.741-3.925-15.787-6.997-22.997-7.339-17.365-21.333-30.123-38.571-37.291l-1.579 23.040 19.584 21.973-20.608-15.403c-2.645 6.869-8.661 19.84-5.12 27.008 3.115 6.187 10.837 10.24 15.445 15.445l-20.608-10.283c-6.955 18.005 5.76 12.8 12.885 25.728-5.205-2.987-13.867-8.533-20.096-5.675-7.979 3.627-16.384 27.307-19.797 35.285l21.845 3.84v1.28c-10.325-1.28-26.709-5.12-28.288 9.003h27.008v1.28l-30.379 3.413-8.277 10.752-17.963 23.168c10.709 3.2 29.141 3.2 39.893 0-15.701 16.512-43.691-7.765-56.619 19.328l32.171 6.4v1.28c-9.984 0-28.587-5.76-37.291-1.195-2.304 1.195-4.011 3.2-5.717 5.12-16.555 18.688 20.48 20.395 32.683 18.773 23.467-3.243 41.6-19.285 57.941-35.541 8.277-8.235 20.181-22.955 32.171-25.387 11.861-2.347 21.76 5.205 30.891 11.221 0-9.045-0.939-18.005 6.4-24.448 0 17.749 0.213 36.565 2.987 54.059 0.981 6.485 3.541 15.019 11.221 16.213 9.6 1.451 22.656-13.184 29.568-18.773 0.085 9.984-7.467 18.432-13.611 25.728-16.896 20.053-43.733 38.997-67.413 50.219v1.28c35.115-6.059 61.525-26.667 99.072-16.725v2.56l-43.776 6.4c1.835 13.696 11.776 31.317 8.661 45.099-4.267 18.773-24.235 27.477-31.829 43.733 13.056-5.035 26.88-12.373 41.216-12.672 8.021-0.213 14.336 4.181 21.845 5.973 20.693 4.821 32.683-5.248 46.336-19.029 3.755 13.013-6.4 23.851-14.251 33.451-7.936 9.771-14.933 19.627-24.32 28.117-11.392 10.24-28.245 22.187-34.773 36.267 10.667-2.091 20.907-10.923 29.611-17.152 15.317-10.88 30.507-21.461 47.616-29.483 9.003-4.267 24.661-11.307 32.171-2.304l-41.173 15.445c2.987 4.309 7.253 8.021 9.429 12.885 5.888 13.099-4.437 24.235-8.149 36.011 7.893-2.901 14.72-9.685 23.168-11.093 19.797-3.328 31.317 20.053 46.336 27.861l10.283-48.896c8.576 7.168 4.779 21.077 3.328 30.891-4.224 28.331-21.035 53.376-25.173 81.067h1.28c16.256-34.816 35.627-72.363 68.181-93.909l-11.819 15.488-20.352 30.848c4.053 1.579 8.021 3.285 11.477 6.059 22.528 18.048 3.328 43.179 0.085 64.725h1.28c2.773-6.613 5.973-13.397 10.027-19.328 18.816-27.221 43.648-22.869 72.363-20.565l-7.68-56.661h1.28c3.797 12.075 11.008 22.016 13.568 34.773 4.693 23.211-0.256 46.251-0.725 69.504h1.28c2.048-13.739 7.637-26.88 12.032-39.936 6.912-20.565 12.501-43.093 27.861-59.179l-14.123 57.899c40.875 0.043 52.011 27.605 52.736 64.384zM574.037 762.027l-20.608-92.672c15.872 9.685 19.2 44.928 20.608 61.781h1.28c2.773-14.848 4.096-29.696 10.155-43.733 2.389-5.547 4.992-13.013 11.733-12.885l-16.469 57.899zM447.915 745.301c0.256-32.896 16.512-62.848 10.24-96.512 6.229 3.755 6.4 12.587 6.485 19.285 0.171 15.573-2.56 30.848-2.56 46.336h1.28c4.48-15.531 16.64-46.507 34.731-48.896-2.133 8.363-9.003 14.677-13.611 21.888-10.155 15.957-20.139 48.213-36.565 57.899zM711.765 731.136c-14.336-22.443-31.403-53.12-52.779-69.504v-1.28c16.213 2.901 33.749 23.424 38.613 38.613h1.28c-0.213-22.869-10.709-47.147-1.28-69.504h1.28c6.827 23.168 3.285 50.517 9.173 74.667 1.835 7.552 8.661 20.181 3.712 27.008zM626.773 679.68c-7.595-17.152-11.307-33.067-27.051-45.056v-2.56c11.307-2.987 19.2 11.179 21.888 20.565h1.28c1.109-8.661 2.133-26.624 11.605-29.611l-6.357 29.611zM351.317 678.4c2.773-31.701 45.355-53.077 39.893-87.552 6.827 4.011 5.077 11.477 2.773 18.048-4.779 13.525-12.715 25.429-18.219 38.613 12.331-11.264 30.549-23.979 47.659-16.768l-27.008 11.221zM528.939 668.075c-3.883-12.8-14.805-37.803-10.283-50.176h2.56l9.003 30.891h1.28c3.2-11.648 6.528-29.312 20.608-30.891l-20.608 50.176zM442.709 635.904l6.4-54.059h2.603l-1.28 38.613c8.405-5.845 19.755-20.224 30.891-15.445-4.267 4.693-10.539 5.504-15.445 9.472-7.979 6.443-12.203 20.565-23.168 21.419zM725.845 628.224c-13.568-13.653-24.917-22.997-43.733-28.331v-2.603c11.136-3.2 21.931 2.987 30.891 9.003-1.493-7.552-11.093-27.307-3.84-32.171l12.331 37.333zM791.509 601.6c5.888-0.427 10.325-7.936 13.781-12.032 10.197-11.904 21.675-24.533 26.112-39.893-29.739 6.144-61.952 1.92-91.392-5.12 6.571 17.28 19.029 35.584 33.493 46.933 4.907 3.925 11.008 10.667 18.005 10.112zM505.771 598.613l-7.723-39.936c6.443 4.907 7.979 20.523 9.003 28.331l11.605-12.885c-1.739 9.661-6.339 18.037-12.878 24.44l-0.008 0.008zM631.893 594.731l-24.448-24.448 23.168 16.725 3.84-23.168c4.523 6.571 2.133 24.661-2.56 30.891zM361.643 591.403c-0.944-0.088-1.813-0.285-2.635-0.578l0.075 0.023v-1.28c10.795-10.923 19.755-26.027 26.496-39.893 3.755-7.637 2.688-16.043 10.795-20.608-0.64 15.061-7.083 26.453-12.885 39.893 9.131-5.291 21.333-13.227 32.171-10.24v2.56c-14.592 6.485-25.899 11.989-38.613 22.101-4.693 3.755-9.557 8.533-15.403 8.021zM272.811 579.285c1.237-10.88 10.112-14.933 18.005-20.907 11.15-8.134 20.792-17.37 29.082-27.735l0.23-0.297c5.419-7.083 8.747-19.285 15.787-24.448-1.536 18.944-12.715 41.216-30.933 48.939v1.28c18.517-3.584 36.992-10.496 55.339-2.56v2.56l-21.888 0.853zM871.296 575.445c12.629-4.907 26.155-22.272 30.891-34.773l-28.331 3.84zM559.829 574.165l-11.563-21.931 12.843 14.165 7.723-12.885zM813.696 543.787c2.642-0.040 5.159-0.521 7.498-1.373l-0.159 0.051c15.573-6.101 11.392-38.4 8.107-50.688-2.603-9.984-7.253-21.12-17.067-25.771-7.125 12.8-17.707 21.163-30.891 27.307-6.571 3.115-17.493 4.309-22.059 10.368-4.395 5.845-8.875 27.563-2.901 33.28 6.485 6.272 24.32 4.992 32.683 4.992 6.955 0 16.725 2.176 24.789 1.835zM683.392 543.232l-21.888-16.725 19.328 10.283-2.56-15.445c5.461 3.84 7.467 15.829 5.12 21.888zM871.296 535.552c5.803-0.469 15.787 0.085 20.053-4.267 14.123-14.507 6.187-53.333-11.051-61.44l-5.12 29.653c1.365-0.085 2.645 0 3.84 0.128v-0.128h3.84l-1.707 0.555c15.189 3.627 12.587 24.619-2.176 25.173l-3.84 1.28 2.091-1.365-0.768-0.043v0.128h-2.56l0.427-0.469c-0.981-0.213-1.963-0.427-3.029-0.853zM805.675 530.347c-2.645-2.688-6.485-4.693-8.448-7.979-13.568-23.253 37.803-23.851 23.296 1.28-1.664 2.901-4.608 4.736-7.125 6.699l-5.163-2.56h-2.56zM535.381 525.227c0-6.571-1.28-13.227 5.12-16.725v12.843l15.488-5.12zM463.872 521.557c-1.963-0.085-3.925-0.213-5.717-0.213 2.261-8.277 5.845-15.36 12.885-20.565l-7.723 16.725 15.445-1.28c-2.987 5.419-9.003 5.589-14.891 5.333zM621.099 521.088c-3.84-0.427-7.168-7.168-7.211-13.867l6.4 11.563 7.765-5.12c-2.133 5.632-4.651 7.68-6.955 7.424zM414.379 517.504l-21.888-3.84 18.048-21.888-10.283 18.005 15.403 2.56zM301.099 499.584c-13.099-0.555-28.16-15.573-38.571-21.973v-2.56l37.333-12.885c-0.768 9.771-13.44 12.672-21.888 14.123l25.728 23.211c-0.548 0.065-1.183 0.102-1.827 0.102-0.258 0-0.514-0.006-0.769-0.018l0.036 0.001zM369.365 496.896l-52.779-14.165v-2.56l28.288-10.155 16.768-11.733c-1.835 13.653-16.341 16-25.771 23.168 11.947 2.261 28.16 2.475 33.493 15.445zM501.931 482.731c-5.504-0.853-9.813-5.12-3.883-8.96zM544.384 475.051l-1.28-9.045c4.011 2.389 4.693 4.48 3.84 9.003zM602.283 475.051c-4.992-1.493-9.131-5.035-3.84-9.045zM649.941 462.165l-12.885-3.84v-5.163zM698.837 460.885v-15.445c4.821 4.693 4.821 10.667 0 15.445zM881.109 453.248c18.133-0.171 36.096-16.853 32-36.139-2.645-12.373-10.325-25.813-22.528-30.635-6.357-2.56-20.736-1.707-21.248 7.467-0.427 8.533 16.555 20.395 19.968 29.611-23.808-18.219-38.4-33.707-70.784-29.611v1.28c19.072 14.123 27.051 38.187 45.184 52.224 4.615 3.621 10.507 5.807 16.909 5.807 0.176 0 0.351-0.002 0.525-0.005h-0.026zM456.875 451.883c-6.229-3.243-10.027-10.069-11.605-16.768l15.445-3.84-8.533 8.235zM261.248 449.28l-48.939-25.728c1.707-9.6 11.179-4.437 18.048-3.968 9.813 0.64 28.032-2.56 33.451-11.52l9.003 1.28c-2.304 14.592-23.296 14.592-34.731 15.488 8.405 8.533 20.48 11.051 23.168 24.448zM509.653 438.997l-14.165-18.048 18.005-6.4-12.885 7.68c2.688 5.632 13.227 10.539 9.045 16.768zM397.653 435.157l-15.445-14.208c6.059-2.005 19.968-9.941 24.448-3.84l-16.725 6.4zM731.008 435.157l18.005-14.208v-2.56l-16.725-9.003c8.867 0.501 16.875 3.816 23.237 9.058l-0.069-0.055c-5.486 8.524-14.111 14.622-24.205 16.684l-0.243 0.041zM317.867 429.995c-7.808-17.493-19.797-31.701-33.451-45.056-7.851-7.637-20.096-14.763-23.168-25.728l56.619 11.989 29.611 5.973c-17.664 12.629-48.64-1.408-65.664-8.96 11.733 23.467 34.688 32.811 39.893 60.501l-1.28 1.28zM561.109 428.715c-5.547-1.835-6.229-6.357-7.68-11.605l7.68-1.28zM613.888 419.669l1.28-14.165c5.739 2.772 9.988 7.86 11.573 14.016l0.033 0.149-9.045-6.4zM434.987 401.664c-5.547-1.621-8.533-5.589-2.56-9.003zM662.827 393.941l-1.323-18.005-11.563 7.68c1.195-7.765 6.656-11.52 14.165-12.8l1.28 23.125zM374.485 392.661c-9.387-2.944-25.429-29.525-29.611-38.613 8.533 0.341 38.187-0.768 42.496 5.12l-28.331 3.883zM532.352 390.144c-7.083-0.427-13.952-4.48-21.419-4.48-21.632 0-57.173 10.752-75.733-3.925-16.896-13.397-17.92-31.317-28.544-48.299-5.163-8.277-14.336-13.867-21.845-19.84-2.773-2.219-7.851-5.419-6.784-9.685 1.28-5.205 10.155-7.979 14.507-9.941 9.728-4.48 20.352-7.979 30.891-10.155 5.589-1.152 13.995-0.939 18.773-4.395 8.704-6.315 5.76-27.861 6.955-37.376 9.685 5.547 22.357 22.187 27.008 32.213-10.283-3.115-14.805-13.227-21.888-20.608l-3.84 27.008c30.080 2.645 43.307 35.541 61.013 55.296 10.795 12.032 24.32 17.28 38.101 24.533-8.107 9.685-19.413-0.555-27.051-6.4-20.437-15.787-32.213-34.816-50.176-52.821l10.283 27.008h-1.28c-5.589-13.397-12.288-27.733-25.728-34.731l5.12 18.005h-1.28c-5.419-12.928-11.52-19.285-25.728-19.285l12.843 29.611h-1.28l-16.725-28.331-5.12 1.28 12.843 24.448h-1.28c-6.485-10.411-13.355-25.173-27.008-21.845l11.52 21.845c-6.4-5.035-9.216-17.067-16.811-20.096-3.456-1.365-10.027 1.152-8.619 5.76 1.792 5.973 11.605 11.861 15.488 16.939 13.227 17.28 23.893 45.525 43.435 56.149 16.043 8.747 40.405-2.304 57.941-2.133 10.027 0.171 21.461 3.584 24.448 14.208-0.536 0.056-1.158 0.088-1.788 0.088-0.452 0-0.9-0.016-1.343-0.049l0.059 0.003zM208.469 386.219l-1.28-7.723 5.12 7.723zM843.136 384.981c9.728-0.171 20.48-1.579 26.027-9.131 5.675-7.68 4.309-18.219 7.253-26.965 2.219 9.216 1.963 43.691 20.352 24.32 14.891-15.659 10.923-49.579-3.712-64.085-9.216-9.088-31.36-14.635-42.325-6.144-16.768 12.928-21.077 39.509-25.941 58.795-1.152 4.651-6.571 15.36-3.584 19.669 2.475 3.669 8.917 3.413 12.8 3.499 2.773 0 5.888 0.085 9.131 0.043zM956.203 377.216c24.277-4.395 26.24-38.699 47.659-48.939v-2.56c-12.16-6.101-16.213 0.085-24.448 9.003l9.003-16.725c-9.941 1.536-12.075 11.179-18.005 18.048l8.96-19.328c-14.763 0-21.035 2.432-27.008 16.725h-1.28l2.56-11.563-9.131 6.485 4.864 16.64zM754.176 375.936c-5.248-1.536-8.021-4.48-3.84-9.045zM576.555 365.611l14.165-15.445 6.4 15.445-6.4-10.283zM706.56 365.611l-1.28-19.285-12.885 7.68c-0.725-8.448 12.288-18.091 19.328-21.845l-2.56 33.451zM357.76 343.765c-4.011-19.285-17.792-36.651-30.165-51.499-5.888-7.083-14.933-14.208-17.493-23.168 21.333 6.144 45.355 27.819 68.267 25.728-5.888 11.435-33.408-4.395-43.776-6.4 8.363 12.373 19.755 23.125 25.173 37.291 2.219 5.973 3.669 13.952-2.005 18.048zM656.341 332.16c-9.813-1.536-9.301-11.264-11.563-19.285-5.461 5.419-11.008 12.928-19.285 11.563l24.448-29.611zM536.661 330.88l-12.885-11.605-1.28 6.443h-3.84l1.28-16.725c7.509 1.28 15.275 14.805 16.725 21.888zM571.435 310.272l-6.443-16.725h-1.28l-10.325 14.165 9.003-29.611h1.28c3.413 8.619 15.573 24.405 7.765 32.171zM714.283 302.592l-3.84-1.323 7.68-42.453c-8.192 7.168-33.493 40.192-43.733 28.288 23.68-7.552 33.536-35.2 54.059-47.616l-6.4 24.448zM778.624 292.267c-6.528-15.957 9.387-33.067 15.445-47.616-16.725 8.619-31.573 22.997-51.499 23.168v-5.12c28.672-2.56 43.947-31.872 66.944-45.099-0.213 24.021-20.821 51.627-28.331 74.667zM517.376 272.939l-9.045-1.28c3.072-7.211 8.405-13.056 10.923-20.565 2.773-8.363 0.981-19.883 9.685-24.448 4.053 9.045 13.952 23.765 11.563 33.451-7.253-3.627-10.752-11.435-11.52-19.328h-1.323zM397.653 271.659c0-25.259-3.413-48.981-10.283-73.387 8.96-0.299 13.653 9.003 18.475 15.488 9.6 12.757 19.2 26.795 34.304 33.451v1.28c-15.317 2.005-34.432-20.907-39.893-33.451h-1.28c4.523 17.493 8.533 39.424 1.28 56.619zM624.213 270.379c-10.411-3.968-7.765-17.92-7.765-27.008l-29.568 20.565c1.621-5.248 5.803-6.827 9.728-10.453 7.68-7.125 14.379-23.765 25.003-25.6zM689.835 245.931c-9.088-16.085 4.139-49.237 6.4-66.944h-1.28c-7.168 15.147-20.992 27.691-32.171 39.893-1.579 1.707-9.728 12.843-12.629 8.192-3.029-4.864 11.861-16.427 14.635-19.755 10.283-12.203 19.584-25.984 27.392-39.893 4.48-8.064 8.405-18.773 16.939-23.168-6.4 33.195-16.64 67.669-16.725 101.675zM261.248 233.045c9.515-2.816 14.933-9.344 15.445-19.285l-29.611-20.608zM474.88 222.805l-1.28-1.323c6.272-17.28 12.501-31.659 15.531-50.219 1.451-8.619 0.555-19.84 7.637-25.728 7.253 13.739 9.813 29.653 16.427 43.776 3.84 8.107 9.984 15.189 8.021 24.448-12.373-6.101-19.669-33.579-23.168-46.336-6.4 17.024-4.437 46.592-23.168 55.339zM562.389 209.877c14.549-28.885 25.344-56.064 33.493-87.467 9.045 5.035 7.808 14.037 7.68 23.125-0.213 21.205 7.936 42.24 6.485 63.061-6.101-2.048-7.168-8.277-8.235-14.165-2.56-14.037-2.56-28.544-5.973-42.453-6.955 16.213-12.501 54.571-33.451 57.899zM833.963 199.637l19.328-28.373-28.331 12.885zM369.365 141.653c27.605-2.432 8.747-27.819-2.56-39.893zM723.328 110.763l11.605-36.053c-9.557 6.699-20.821 17.664-25.771 28.331zM488.576 91.349l14.677-2.475-11.605-41.173h-1.28l-2.56 32.171zM610.176 83.925c2.645 0 5.163-0.555 7.211-2.261 6.955-5.888-2.859-34.347-6.016-41.685l-14.165 41.173c3.669 0.939 8.533 2.688 12.971 2.773z" />
<glyph unicode="&#xe92d;" glyph-name="openbugbounty" d="M345.259 855.765c-0.741 0.033-1.611 0.052-2.485 0.052-32.707 0-59.221-26.514-59.221-59.221 0-3.378 0.283-6.691 0.826-9.915l-0.048 0.348c17.92-109.525 90.027-175.573 152.747-213.248 1.438-44.994 7.578-87.84 17.955-129.002l-0.888 4.159h-175.957c-32.719 0-59.243-26.524-59.243-59.243s26.524-59.243 59.243-59.243v0h219.947c16.64-32.725 36.267-62.933 58.453-89.941-77.483-58.027-150.016-159.317-185.173-212.608-6.153-9.191-9.82-20.498-9.82-32.661 0-32.711 26.517-59.228 59.228-59.228 20.547 0 38.65 10.463 49.273 26.351l0.135 0.215c58.709 88.747 134.4 172.629 174.507 196.437 45.163-31.755 99.668-53.337 158.656-60.259l1.643-0.157v584.405h-319.317c-36.992 25.088-74.795 64.256-84.437 123.136-4.622 27.529-27.712 48.425-55.901 49.617l-0.121 0.004zM804.651 960c-126.763 0-234.709-83.925-280.619-203.307h280.619z" />
<glyph unicode="&#xe92e;" glyph-name="opencart" d="M677.28 152.48c0-40.48-32.48-72.96-72.96-72.96s-73.28 32.48-73.28 72.96 32.96 73.28 73.28 73.28c40.64 0 72.96-32.8 72.96-73.28zM271.040 225.76c-40.48 0-72.96-32.96-72.96-73.28s32.48-72.96 72.96-72.96 73.28 32.48 73.28 72.96-32.8 73.28-73.28 73.28zM737.76 657.76c-483.52 0-606.72 20.48-737.76 158.72 55.040-82.72 85.28-238.24 596.96-230.72 533.28 8 208-137.76 113.28-302.24 298.72 266.72 511.040 374.24 27.52 374.24z" />
<glyph unicode="&#xe92f;" glyph-name="opencollective" d="M512 960c-282.752 0-512-229.248-512-512s229.248-512 512-512c108.373 0 208.811 33.707 291.584 91.093l-132.565 132.651c-45.844-25.75-100.624-40.917-158.945-40.917-181.797 0-329.173 147.376-329.173 329.173s147.376 329.173 329.173 329.173c58.321 0 113.1-15.167 160.607-41.773l-1.662 0.855 132.565 132.651c-81.135 57.001-181.964 91.094-290.756 91.094-0.291 0-0.582 0-0.873-0.001h0.045zM932.907 739.584l-132.651-132.565c25.748-45.683 40.918-100.296 40.918-158.451 0-0.199 0-0.399-0.001-0.598v0.030c0-0.129 0-0.283 0-0.436 0-58.2-15.169-112.856-41.769-160.232l0.851 1.65 132.651-132.565c57.001 81.135 91.094 181.964 91.094 290.756 0 0.291 0 0.582-0.001 0.873v-0.045c0 108.373-33.707 208.811-91.093 291.584z" />
<glyph unicode="&#xe930;" d="M711.757 287.876l90.871-90.871c58.18 67.307 93.372 155.038 93.372 250.991 0 94.406-34.065 180.854-90.577 247.723l-90.995-90.992c33.583-43.309 53.572-97.685 53.572-156.731 0-60.595-21.052-116.275-56.243-160.119z" />
<glyph unicode="&#xe931;" d="M668.732 245.568c-43.311-33.579-97.685-53.568-156.732-53.568-141.385 0-256 114.615-256 256s114.615 256 256 256c60.595 0 116.275-21.053 160.119-56.244l90.871 90.871c-67.307 58.181-155.038 93.373-250.991 93.373-212.077 0-384-171.923-384-384 0-212.079 171.923-384 384-384 94.404 0 180.851 34.065 247.723 90.577l-90.991 90.991z" />
<glyph unicode="&#xe932;" glyph-name="opencontainersinitiative" d="M0 960v-1024h1024v1024zM876.672 88.277h-729.557v719.275h729.771v-719.232zM656.725 514.048h146.603v-352.213h-146.603zM656.725 734.208h146.603v-146.603h-146.603zM367.061 308.565v278.869h216.491v146.773h-363.221v-572.373h363.221v146.773z" />
<glyph unicode="&#xe933;" glyph-name="opencv" d="M507.699 923.627c-135.006 0-244.446-109.44-244.446-244.446 0-89.685 48.303-168.098 120.311-210.628l70.025 118.822c1.754 2.982 0.751 6.797-2.112 8.738-26.594 18.035-44.066 48.512-44.066 83.072 0 55.381 44.902 100.284 100.288 100.284s100.288-44.902 100.288-100.288c0-34.551-17.472-65.033-44.066-83.072-2.863-1.937-3.87-5.751-2.112-8.734l70.033-118.827c72.013 42.534 120.316 120.943 120.316 210.633 0 135.006-109.453 244.446-244.459 244.446zM244.446 461.265c-135.006 0-244.446-109.44-244.446-244.446s109.44-244.446 244.446-244.446c135.671 0 247.782 115.179 244.373 250.718h-137.617c-3.614 0-6.455-3.059-6.481-6.673-0.35-54.016-45.414-99.887-100.275-99.887-55.386 0-100.288 44.902-100.288 100.288 0 55.39 44.902 100.288 100.288 100.288 14.507 0 28.288-3.089 40.734-8.627 3.042-1.357 6.682-0.329 8.371 2.539l70.246 119.189c-35.298 19.78-76.011 31.057-119.351 31.057zM903.322 428.779l-69.828-118.946c-1.749-2.987-0.734-6.801 2.133-8.738 26.624-17.993 44.151-48.444 44.215-82.995 0.094-55.381-44.727-100.352-100.117-100.446-55.381-0.098-100.365 44.723-100.459 100.105-0.064 34.551 17.357 65.058 43.921 83.14 2.859 1.95 3.861 5.773 2.099 8.751l-70.246 118.69c-71.932-42.658-120.090-121.148-119.936-210.837 0.239-135.002 109.867-244.258 244.877-244.019 135.002 0.23 244.25 109.867 244.019 244.873-0.158 89.694-48.597 168.021-120.678 210.423z" />
<glyph unicode="&#xe934;" d="M0 960h1024v-1024h-1024v1024z" />
<glyph unicode="&#xe935;" d="M426.667 874.667v-853.333l469.333 128v597.333l-469.333 128z" />
<glyph unicode="&#xe936;" d="M128 746.667h298.667v-597.333h-298.667v597.333z" />
<glyph unicode="&#xe937;" d="M597.333 490.667v-85.333" />
<glyph unicode="&#xe938;" glyph-name="opened-folder" d="M853.333 704h-341.333l-85.333 85.333h-256c-46.933 0-85.333-38.4-85.333-85.333v-512c0-46.933 38.4-85.333 85.333-85.333h682.667c46.933 0 85.333 38.4 85.333 85.333v426.667c0 46.933-38.4 85.333-85.333 85.333zM853.333 192h-682.667v426.667h682.667v-426.667z" />
<glyph unicode="&#xe939;" glyph-name="openfaas" d="M183.637 960c-101.362-0.146-183.492-82.276-183.637-183.623v-656.697c0.121-101.38 82.261-183.534 183.623-183.68h656.739c101.376 0.146 183.516 82.3 183.637 183.668v656.652c-0.121 101.395-82.285 183.559-183.668 183.68h-0.012zM183.381 926.891h656.981c83.095-0.097 150.431-67.433 150.528-150.519v-656.692c0-8.747-0.811-17.451-2.304-26.027-52.651 0.64-79.275 17.579-107.264 35.584-30.208 19.371-64.427 41.387-129.707 41.387s-99.413-22.016-129.621-41.387c-7.253-4.693-14.421-9.259-21.931-13.525-7.123 14.809-18.273 41.663-28.796 68.83l-4.271 12.535c-2.281 4.474-3.617 9.757-3.617 15.352 0 5.922 1.497 11.495 4.133 16.36l-0.090-0.182c12.8 20.864 52.48 29.483 67.072 31.104 15.403 1.152 254.72 23.68 269.056 305.195 0.018 0.303 0.029 0.657 0.029 1.013 0 9.897-8.023 17.92-17.92 17.92-5.027 0-9.571-2.070-12.825-5.404l-0.004-0.004c-19.499-19.797-80.469-69.717-128-62.72-12.777 1.908-22.801 3.801-32.708 6.005l3.14-0.587c-60.8 12.501-142.464 29.227-212.139-73.387-69.675 102.656-151.381 85.845-212.139 73.387-10.581-2.133-20.48-4.181-29.739-5.461-47.275-6.912-108.288 42.965-127.872 62.763-3.258 3.336-7.8 5.405-12.826 5.405-9.897 0-17.92-8.023-17.92-17.92 0-0.341 0.009-0.679 0.028-1.015l-0.002 0.047c14.336-280.747 252.331-303.957 268.971-305.195 3.669-0.512 46.933-6.827 63.147-30.592 6.4-10.112 7.851-22.571 3.925-33.835-8.217-31.102-16.269-55.936-25.434-80.223l1.882 5.684c-4.565 2.773-9.131 5.547-13.653 8.448-30.208 19.371-64.427 41.387-129.664 41.387-65.28 0-99.499-22.016-129.707-41.387-27.904-17.92-54.485-34.816-106.667-35.584-1.465 7.81-2.317 16.809-2.347 26.001v656.666c0.048 83.042 67.257 150.371 150.249 150.613h0.023zM374.272 836.949l-202.24-60.971 55.168-182.955 135.040 40.747-8.107-52.437 208.811-32.299 29.184 188.843-197.12 30.507zM822.016 802.261l-210.688-14.848 13.44-190.549 210.688 14.805z" />
<glyph unicode="&#xe93a;" glyph-name="opengl" d="M337.963 474.368v-16.043h0.384c3.27 6.501 8.661 11.534 15.248 14.264l0.197 0.072c7.040 2.987 14.763 4.48 23.168 4.48 9.344 0 17.536-1.664 24.491-5.035s12.715-7.893 17.323-13.611c4.499-5.61 8.056-12.201 10.297-19.374l0.114-0.423c2.347-7.467 3.499-15.403 3.499-23.808s-1.152-16.341-3.413-23.808c-2.258-7.525-5.779-14.056-10.364-19.687l0.081 0.103c-4.648-5.564-10.436-10.013-17.022-13.019l-0.3-0.123c-6.787-3.054-14.712-4.834-23.052-4.834-0.416 0-0.831 0.004-1.244 0.013l0.062-0.001c-7.503 0.102-14.645 1.517-21.248 4.025l0.427-0.142c-3.894 1.51-7.26 3.407-10.303 5.708l0.105-0.076c-3.235 2.404-5.925 5.338-7.987 8.698l-0.077 0.134h-0.384v-61.099h-20.096v163.627h20.096zM409.259 432.299c-1.495 5.375-3.821 10.068-6.867 14.198l0.083-0.118c-3.080 4.119-6.992 7.445-11.504 9.769l-0.187 0.087c-4.643 2.32-10.116 3.679-15.905 3.679-0.288 0-0.576-0.003-0.863-0.010l0.043 0.001c-6.699 0-12.373-1.28-17.067-3.883-4.619-2.537-8.447-5.97-11.365-10.093l-0.070-0.104c-2.881-4.077-5.103-8.853-6.381-14.002l-0.061-0.291c-1.27-4.888-1.999-10.499-1.999-16.281 0-5.965 0.776-11.748 2.233-17.255l-0.106 0.469c1.38-5.453 3.674-10.23 6.737-14.409l-0.081 0.116c3.101-4.156 7.042-7.51 11.588-9.853l0.188-0.088c4.821-2.517 10.667-3.755 17.536-3.755s12.587 1.28 17.152 3.883c4.525 2.545 8.25 6.010 11.021 10.167l0.073 0.116c2.816 4.267 4.821 9.131 6.059 14.635s1.877 11.136 1.877 16.939c0.002 0.174 0.003 0.379 0.003 0.585 0 5.519-0.78 10.855-2.236 15.905l0.1-0.405zM535.168 363.563c-9.088-6.699-20.48-10.069-34.261-10.069-0.428-0.010-0.932-0.016-1.437-0.016-8.566 0-16.739 1.683-24.206 4.736l0.427-0.155c-7.091 3.026-13.087 7.38-17.92 12.794l-0.043 0.049c-4.804 5.501-8.545 12.068-10.818 19.285l-0.104 0.384c-2.386 7.421-3.867 15.975-4.094 24.842l-0.002 0.118c0 9.003 1.408 17.237 4.224 24.704s6.784 13.952 11.861 19.456c4.974 5.374 10.995 9.699 17.748 12.666l0.342 0.134c6.955 3.072 14.592 4.565 22.912 4.565 10.795 0 19.755-2.176 26.88-6.528s12.843-9.899 17.152-16.64c4.309-6.741 7.296-14.080 8.917-22.016 1.664-7.936 2.304-15.531 2.005-22.699h-90.752c-0.171-5.163 0.469-10.112 1.877-14.72 1.447-4.768 3.775-8.889 6.817-12.37l-0.033 0.039c3.24-3.647 7.228-6.554 11.731-8.493l0.216-0.083c4.821-2.133 10.539-3.2 17.109-3.2 0.432-0.019 0.938-0.030 1.447-0.030 7.176 0 13.852 2.145 19.42 5.829l-0.131-0.082c5.498 4.181 9.369 10.256 10.641 17.237l0.026 0.171h19.712c-2.731-13.227-8.576-23.211-17.664-29.909zM530.304 439.509c-5.33 12.080-17.202 20.359-31.007 20.359-0.244 0-0.487-0.003-0.73-0.008l0.036 0.001c-0.148 0.002-0.322 0.003-0.496 0.003-4.838 0-9.448-0.974-13.646-2.735l0.232 0.087c-4.15-1.736-7.685-4.175-10.616-7.202l-0.008-0.008c-2.887-2.989-5.246-6.51-6.912-10.399l-0.086-0.225c-1.641-3.782-2.726-8.168-3.023-12.769l-0.006-0.117h69.461c-0.351 4.777-1.494 9.202-3.3 13.266l0.1-0.253zM586.923 474.368v-18.773h0.384c8.32 14.379 21.504 21.547 39.595 21.547 8.021 0 14.677-1.067 20.011-3.2s9.643-5.12 12.971-8.96c3.285-3.84 5.632-8.363 6.955-13.653s2.005-11.136 2.005-17.536v-77.952h-20.096v80.171c0.018 0.347 0.029 0.753 0.029 1.162 0 6.321-2.518 12.054-6.605 16.251l0.005-0.005c-4.391 3.994-10.252 6.44-16.684 6.44-0.495 0-0.986-0.014-1.474-0.043l0.067 0.003c-0.265 0.006-0.576 0.009-0.889 0.009-5.388 0-10.538-1.021-15.266-2.881l0.283 0.098c-4.421-1.785-8.16-4.442-11.154-7.78l-0.025-0.028c-2.91-3.299-5.197-7.224-6.631-11.539l-0.068-0.237c-1.409-4.255-2.222-9.154-2.222-14.242 0-0.183 0.001-0.366 0.003-0.548v0.028-66.901h-20.096v118.485h18.901zM807.68 357.163c-8.109-3.51-17.55-5.562-27.467-5.589h-0.010c-14.592 0-27.691 2.475-39.339 7.424-11.575 4.868-21.399 11.805-29.436 20.43l-0.046 0.050c-7.86 8.589-14.114 18.798-18.191 30.050l-0.199 0.627c-4.267 11.733-6.4 24.405-6.4 37.973 0 13.909 2.133 26.837 6.4 38.784 4.267 11.904 10.368 22.315 18.347 31.189s17.792 15.829 29.44 20.907c11.159 4.783 24.145 7.564 37.781 7.564 0.548 0 1.094-0.004 1.64-0.013l-0.082 0.001c9.771 0 19.243-1.451 28.373-4.309 9.173-2.901 17.408-7.125 24.789-12.672 15.139-11.444 25.296-28.79 27.032-48.552l0.018-0.258h-39.979c-2.475 10.411-7.296 18.219-14.421 23.467-6.851 4.894-15.397 7.826-24.628 7.826-0.432 0-0.862-0.006-1.291-0.019l0.063 0.001c-9.429 0-17.408-1.792-24.021-5.333s-11.904-8.363-16-14.379c-3.997-5.856-7.075-12.702-8.833-20.061l-0.085-0.419c-1.761-6.996-2.772-15.028-2.772-23.296s1.011-16.3 2.915-23.979l-0.143 0.683c1.877-7.381 4.864-14.037 8.96-19.968s9.429-10.667 16-14.208c6.571-3.584 14.592-5.333 24.021-5.333 13.867 0 24.619 3.413 32.171 10.283 7.552 6.827 11.989 16.768 13.227 29.781h-42.112v30.592h79.872v-100.608h-26.581l-4.267 21.12c-6.365-8.546-14.702-15.282-24.357-19.599l-0.39-0.156zM931.2 541.867v-151.467h92.8v-34.517h-134.571v185.984h41.771zM162.176 363.52c2.261-1.28 4.565-2.517 6.997-3.627 11.392-5.291 24.661-7.936 39.808-7.936s28.416 2.645 39.808 7.936 20.949 12.459 28.587 21.461c7.637 9.003 13.397 19.371 17.237 31.061s5.76 23.893 5.76 36.523c0 12.672-1.92 24.832-5.76 36.523-3.905 11.969-9.788 22.313-17.344 31.19l0.107-0.129c-7.772 9.028-17.297 16.313-28.073 21.373l-0.513 0.217c-11.124 5.107-24.133 8.085-37.838 8.085-0.692 0-1.383-0.008-2.072-0.023l0.102 0.002c-15.147 0-28.416-2.688-39.808-8.064l-1.28-0.64c60.8 51.157 172.117 85.376 299.392 85.376 107.179 0 203.307-22.016 267.221-60.245-69.76 64.043-194.816 109.013-337.835 109.056-219.093 0.043-396.672-100.053-396.672-223.616 0-123.52 177.536-223.701 396.544-223.744 142.421-0.043 267.179 44.843 337.109 108.416-63.915-37.973-159.616-59.605-266.411-59.605-131.328 0.043-245.717 36.523-305.067 90.411zM179.029 518.741c8.363 4.437 18.347 6.656 29.952 6.656s21.589-2.219 29.952-6.656c8.363-4.437 15.232-10.283 20.608-17.579 5.333-7.296 9.259-15.488 11.776-24.619 2.399-8.313 3.778-17.862 3.778-27.733s-1.379-19.42-3.956-28.465l0.178 0.731c-2.517-9.131-6.4-17.323-11.776-24.576-5.433-7.323-12.326-13.248-20.282-17.423l-0.326-0.156c-8.405-4.437-18.347-6.613-29.952-6.613-0.499-0.014-1.085-0.022-1.674-0.022-10.303 0-20.034 2.451-28.641 6.802l0.364-0.167c-8.275 4.343-15.166 10.265-20.495 17.42l-0.113 0.159c-5.147 7.005-9.186 15.197-11.65 24.046l-0.126 0.53c-2.399 8.313-3.778 17.862-3.778 27.733s1.379 19.42 3.956 28.465l-0.178-0.731c2.559 9.397 6.602 17.608 11.92 24.823l-0.144-0.204c5.333 7.296 12.203 13.141 20.608 17.579z" />
<glyph unicode="&#xe93b;" glyph-name="openid" d="M607 96l-136-64c-230 20.6-407 143-407 291.6 0 143 165 262 383.4 288.6v-86c-143-25-248-106-248-202.6 0-102 117-186.6 271.4-206v680l136 66.4v-768zM960 378l-262.6 57 73.6 41.4c-39 23-87 40-140 49.6v86c92.4-11 175.4-39 240.6-78.6l70 39.6 18.4-195z" />
<glyph unicode="&#xe93c;" glyph-name="openlayers" d="M1011.2 401.92c-9.413-27.904-25.951-51.325-47.473-68.863l-0.271-0.214-316.843-264.363c-36.775-28.886-83.732-46.325-134.763-46.325s-97.988 17.44-135.237 46.684l0.475-0.359-316.843 264.32c-21.675 17.877-38.191 41.271-47.464 68.048l-0.323 1.072c-4.439-13.087-7.001-28.16-7.001-43.832 0-45.216 21.326-85.45 54.469-111.194l0.319-0.238 316.843-264.363c36.775-28.886 83.732-46.325 134.763-46.325s97.988 17.44 135.237 46.684l-0.475-0.359 316.843 264.363c33.461 25.982 54.787 66.216 54.787 111.432 0 15.672-2.562 30.745-7.29 44.824l0.289-0.993zM377.088 913.664c36.775 28.886 83.732 46.325 134.763 46.325s97.988-17.44 135.237-46.684l-0.475 0.359 316.843-264.363c34.022-25.96 55.754-66.527 55.754-112.171s-21.732-86.211-55.412-111.921l-0.341-0.25-316.843-263.979c-36.775-28.886-83.732-46.325-134.763-46.325s-97.988 17.44-135.237 46.684l0.475-0.359-316.843 264.405c-33.859 25.967-55.473 66.438-55.473 111.957s21.614 85.99 55.138 111.711l0.335 0.247z" />
<glyph unicode="&#xe93d;" glyph-name="openmined" d="M512 960c-20.736 0-41.472-10.325-53.333-30.933l-156.501-271.232-271.232-156.501c-18.616-10.792-30.937-30.624-30.937-53.333s12.321-42.541 30.643-53.176l0.294-0.158 271.232-156.501 156.501-271.232c10.792-18.616 30.624-30.937 53.333-30.937s42.541 12.321 53.176 30.643l0.158 0.294 156.501 271.232 271.232 156.501c41.259 23.211 41.259 82.987 0 106.667l-271.232 156.501-156.501 271.232c-10.677 18.605-30.428 30.934-53.059 30.934-0.097 0-0.193 0-0.29-0.001h0.015zM512.256 779.221l330.965-331.477-331.477-330.965-330.965 330.965zM511.744 646.443l-198.656-198.699 198.656-198.656 198.699 198.656z" />
<glyph unicode="&#xe93e;" glyph-name="openMRS_logo" d="M326.426 806.58c55.219 28.451 118.615 46.753 185.824 46.753 66.761 0 129.852-16.16 185.442-44.8 7.108-3.662 11.571-10.991 11.563-18.988l-0.156-144.354 144.486-0.109c7.983-0.006 15.294-4.467 18.948-11.565 28.649-55.616 44.809-118.707 44.809-185.502 0-66.758-16.16-129.85-44.8-185.44-3.663-7.108-10.991-11.571-18.987-11.563l-144.512 0.154-0.109-144.747c-0.006-7.981-4.465-15.292-11.561-18.948-55.593-28.649-118.675-44.809-185.47-44.809s-129.858 16.16-185.472 44.796c-7.11 3.663-11.575 10.993-11.567 18.991l0.154 144.585-144.593 0.094c-7.983 0.004-15.295 4.467-18.951 11.563-28.648 55.61-44.808 118.701-44.808 185.485 0 66.797 16.161 129.858 44.788 185.463 3.661 7.11 10.991 11.575 18.989 11.567l144.59-0.147-0.169 142.531c-0.011 7.997 4.452 15.327 11.561 18.989zM290.564 602.419l-106.879 0.109c-22.027-46.818-34.352-99.11-34.352-154.351 0-55.243 12.33-107.567 34.377-154.389l107.016-0.068c-30.569 43.75-48.521 97.007-48.521 154.458 0 57.344 17.892 110.517 48.358 154.242zM353.365 285.244c40.986-39.853 96.875-64.365 158.539-64.365 62.795 0 119.586 25.417 160.736 66.575 0.358 0.358 0.727 0.702 1.107 1.030 40.45 41.039 65.38 97.357 65.38 159.533 0 62.807-25.421 119.625-66.575 160.772-0.548 0.546-1.060 1.118-1.538 1.711-40.983 39.991-96.977 64.619-158.765 64.619-62.805 0-119.622-25.427-160.772-66.577-0.821-0.823-1.702-1.568-2.626-2.234-39.622-40.96-63.979-96.674-63.979-158.131 0-62.801 25.425-119.586 66.577-160.736 0.693-0.695 1.333-1.429 1.916-2.197zM357.66 226.562l-0.115-106.871c46.825-22.035 99.119-34.359 154.359-34.359 55.251 0 107.567 12.331 154.374 34.374l0.079 107.019c-43.753-30.566-97.013-48.512-154.453-48.512-57.34 0-110.519 17.884-154.244 48.35zM733.453 293.809l106.865-0.115c22.031 46.803 34.357 99.117 34.357 154.323 0 55.253-12.331 107.578-34.379 154.411l-107.019 0.079c30.571-43.763 48.516-97.041 48.516-154.49 0-57.323-17.879-110.5-48.341-154.208zM666.46 669.442l0.113 106.867c-46.803 22.031-99.115 34.357-154.323 34.357-54.895 0-107.499-13.818-154.703-36.278l0.126-105.185c43.778 30.607 97.090 48.582 154.577 48.582 57.327 0 110.5-17.886 154.21-48.343z" />
<glyph unicode="&#xe93f;" glyph-name="opennebula" d="M915.541 100.267v-147.328s-0.299-8.789-3.712-12.075c-2.957-2.994-7.061-4.849-11.599-4.849-0.332 0-0.662 0.010-0.99 0.030l0.045-0.002c-164.651 0.213-329.301 0.427-493.952 0.128-67.243 0.213-138.667 7.381-193.365 47.659-3.157 3.413-20.693 12.331-8.021 11.051 224.826 12.368 434.897 41.592 638.98 86.748l-25.988-4.828c59.814 12.839 92.94 20.944 125.899 29.466l-27.339-5.999zM139.605 65.536c8.789-12.885 15.36-32.683 30.293-38.315 250.88 12.373 501.76 46.208 745.643 108.203v144.683c-103.979-49.493-212.608-89.472-322.475-122.453-128.843-39.453-282.494-71.802-440.24-90.859l-13.221-1.301zM111.445 146.005c2.56-16.512 6.741-32.043 12.757-48.085 263.125 30.976 523.776 95.403 764.8 207.531 8.832 4.181 17.664 8.448 26.453 12.715v139.861c-187.392-127.445-400.725-212.736-618.795-270.037-61.355-15.488-122.709-31.573-185.216-41.984zM574.379 431.531c-135.595-76.928-280.661-136.32-429.525-180.821-10.965-5.973-31.317-3.669-31.232-20.011-3.266-14.281-5.138-30.681-5.138-47.517 0-0.995 0.007-1.988 0.020-2.98l-0.002 0.15c241.835 46.293 480.085 123.307 694.741 247.168 44.638 25.861 81.293 49.621 116.771 74.924l-4.472-3.030v208.896c-94.421-113.365-214.144-203.691-341.205-276.779zM891.947 954.624c-41.088-17.621-207.317-99.413-232.235-208-10.069-13.781-25.429 3.413-36.437 6.955-94.251 46.549-213.675 31.403-294.4-37.205-80.555-65.195-124.843-182.016-87.808-283.221 5.803-11.904 11.819-27.861-0.768-37.675-14.933-10.368-31.701-17.877-44.8-31.061-26.667-22.485-49.92-51.371-64-82.176 221.184 67.157 437.76 163.584 618.837 310.741 60.715 50.475 117.632 106.795 165.12 169.899v193.579c-3.115 6.571-12.629 2.859-23.509-1.835z" />
<glyph unicode="&#xe940;" glyph-name="open-one" d="M490.667 320c0-58.91-47.756-106.667-106.667-106.667s-106.667 47.756-106.667 106.667c0 58.91 47.756 106.667 106.667 106.667s106.667-47.756 106.667-106.667z" />
<glyph unicode="&#xe941;" glyph-name="open-source" d="M512 874.667c-234.667 0-426.667-192-426.667-426.667 0-157.833 89.667-298.667 217.667-371.167 25.5-12.833 51.167-25.667 81-34.167l102.333 281.667c-29.833 8.5-55.333 25.5-72.5 46.833-21.333 21.333-29.833 47-29.833 76.833 0 72.5 55.5 128 128 128s128-55.5 128-128c0-29.833-8.5-55.5-25.667-76.833-17-21.333-42.667-42.667-72.5-46.833l102.5-281.667c25.5 8.5 55.333 21.333 76.667 34.167 132.333 72.5 217.667 213.333 217.667 371.167 0 234.667-192 426.667-426.667 426.667zM691.167 157.833l-46.833 123.833c51.167 38.333 81 98 81 166.333 0 119.5-93.833 213.333-213.333 213.333s-213.333-93.833-213.333-213.333c0-68.333 29.833-128 81-166.333l-46.833-123.833c-98.167 59.833-162.167 166.5-162.167 290.167 0 187.667 153.667 341.333 341.333 341.333s341.333-153.667 341.333-341.333c0-123.667-64-230.333-162.167-290.167z" />
<glyph unicode="&#xe942;" glyph-name="opensourceinitiative" d="M510.251 940.928c-0.266 0.001-0.581 0.001-0.897 0.001-281.309 0-509.355-228.046-509.355-509.355 0-0.33 0-0.661 0.001-0.991v0.051c0-237.909 165.291-430.805 332.075-474.197 8.235-2.133 16.725 2.133 19.925 9.984l118.229 291.072c0.804 1.9 1.271 4.11 1.271 6.429 0 7.499-4.886 13.857-11.648 16.065l-0.12 0.034c-60.16 19.925-95.787 68.992-97.92 150.912-1.024 77.995 64 147.2 151.936 147.072 82.389-0.128 148.437-69.632 148.437-147.328 0-41.216-8.661-71.979-24.533-95.488-15.829-23.552-39.339-40.576-72.32-52.864-6.464-2.47-10.972-8.62-10.972-15.824 0-2.213 0.425-4.327 1.199-6.264l-0.040 0.114 114.56-294.528c2.529-6.344 8.619-10.746 15.737-10.746 1.457 0 2.871 0.184 4.22 0.531l-0.117-0.026c170.368 42.965 334.080 233.771 334.080 475.093 0 281.685-230.272 510.251-513.749 510.251zM510.251 907.179c265.387 0 480-213.205 480-476.501 0-219.221-146.048-392.875-294.187-438.272l-102.997 264.875c29.995 13.141 55.552 33.707 72.619 59.051 20.352 30.208 30.251 68.352 30.251 114.347 0 96.683-80.981 180.907-182.187 181.077-105.813 0.171-186.965-84.309-185.685-181.333 0.981-85.12 39.851-148.992 104.576-176.213l-106.325-261.035c-144.939 45.568-292.565 221.952-292.565 437.504-0.002 0.482-0.003 1.053-0.003 1.624 0 262.269 212.611 474.88 474.88 474.88 0.571 0 1.142-0.001 1.712-0.003h-0.088zM963.243 47.488c-23.424-1.065-42.011-20.314-42.011-43.904s18.587-42.839 41.915-43.901l0.095-0.003c23.424 1.065 42.011 20.314 42.011 43.904s-18.587 42.839-41.915 43.901l-0.095 0.003zM963.243 40.576c20.48 0 36.907-16.555 36.907-36.992-0.024-10.479-4.458-19.918-11.543-26.563l-0.020-0.018-7.339 14.592c-1.356 2.896-2.937 5.393-4.788 7.66l0.052-0.065c-1.252 1.593-2.896 2.824-4.787 3.558l-0.077 0.026c3.006 0.794 5.515 2.568 7.227 4.954l0.026 0.038c1.634 2.386 2.609 5.335 2.609 8.512 0 0.157-0.002 0.314-0.007 0.471l0.001-0.023c0 5.547-1.621 9.685-4.821 12.459-3.243 2.731-8.192 4.053-14.763 4.053h-17.493v-57.301h7.723v24.235h8.533c3.072 0 5.461-0.64 7.253-1.92 2.365-2.066 4.235-4.635 5.454-7.545l0.050-0.135 7.296-14.635 6.699-0.043c-6.442-5.636-14.901-9.109-24.17-9.216h-0.022c-20.407 0-36.949 16.543-36.949 36.949s16.543 36.949 36.949 36.949v0zM952.149 26.837h9.771c3.755 0 6.613-0.768 8.533-2.517 1.877-1.707 2.816-4.224 2.816-7.552 0-3.371-0.939-5.973-2.859-7.68-1.877-1.707-4.736-2.56-8.533-2.56h-9.728z" />
<glyph unicode="&#xe943;" glyph-name="openssl" d="M83.669 382.635c-12.928 0-24.533 2.219-34.901 6.699s-19.115 10.667-26.283 18.645c-7.168 7.979-12.715 17.408-16.597 28.331-3.925 10.923-5.888 22.741-5.888 35.499s1.963 24.576 5.845 35.499c3.883 10.923 9.429 20.352 16.597 28.331 7.211 7.979 15.957 14.208 26.325 18.688s22.016 6.699 34.901 6.699c12.928 0 24.533-2.219 34.901-6.699s19.115-10.667 26.283-18.645c7.168-7.979 12.715-17.408 16.597-28.331s5.845-22.741 5.845-35.499c0-12.757-1.963-24.576-5.845-35.499-3.925-10.923-9.429-20.352-16.597-28.331s-15.957-14.208-26.283-18.645c-10.368-4.48-21.973-6.741-34.901-6.741zM83.669 401.536c10.027 0 18.901 1.792 26.539 5.376s14.123 8.491 19.371 14.72c5.248 6.229 9.216 13.611 11.819 22.229 2.645 8.619 3.925 17.92 3.925 27.989 0 10.027-1.323 19.371-3.925 27.989-2.645 8.619-6.571 16.043-11.819 22.357s-11.733 11.221-19.371 14.805-16.469 5.333-26.539 5.333c-10.027 0-18.901-1.792-26.539-5.376s-14.123-8.533-19.371-14.805c-5.248-6.315-9.216-13.739-11.819-22.357-2.645-8.619-3.925-17.92-3.925-27.989 0-10.027 1.323-19.371 3.925-27.989 2.645-8.619 6.571-16 11.819-22.229s11.733-11.136 19.371-14.72c7.68-3.541 16.512-5.333 26.539-5.333zM190.080 509.824h19.371v-17.451h0.469c4.608 6.357 10.112 11.349 16.512 14.933 6.357 3.584 14.123 5.376 23.211 5.376 7.808 0 14.976-1.493 21.504-4.437s12.117-7.168 16.725-12.672c4.608-5.504 8.235-12.331 10.88-20.437 2.645-8.149 3.925-17.28 3.925-27.477 0-9.899-1.237-18.859-3.712-26.88-2.475-8.064-6.016-14.891-10.624-20.565s-10.283-9.984-16.981-13.013c-6.699-3.029-14.208-4.523-22.485-4.523-8.448 0-15.787 1.365-22.016 4.053s-11.861 7.424-16.981 14.123h-0.427v-66.432h-19.371v175.403zM247.467 398.891c5.888 0 11.093 1.237 15.531 3.712 4.48 2.475 8.149 5.845 11.136 10.155 2.944 4.309 5.12 9.387 6.571 15.317 1.451 5.888 2.133 12.331 2.133 19.371 0 6.869-0.725 13.269-2.133 19.243-1.451 5.973-3.627 11.136-6.571 15.531s-6.613 7.808-11.008 10.283c-4.395 2.475-9.515 3.712-15.403 3.712-6.699 0-12.544-1.28-17.579-3.84s-9.131-6.059-12.331-10.539c-3.2-4.48-5.589-9.643-7.168-15.531s-2.389-12.203-2.389-18.901c0-6.699 0.725-13.013 2.133-18.901 1.451-5.888 3.712-11.051 6.827-15.403 3.115-4.395 7.125-7.851 12.075-10.411 4.949-2.517 11.008-3.797 18.176-3.797zM377.045 382.891c-9.387 0-17.792 1.707-25.216 5.12s-13.653 8.107-18.773 13.995c-5.12 5.888-9.003 12.8-11.733 20.693s-4.053 16.299-4.053 25.216c0 8.917 1.408 17.323 4.181 25.216s6.784 14.763 11.947 20.693c5.163 5.888 11.349 10.539 18.517 13.995 7.168 3.413 15.147 5.12 23.893 5.12 9.259 0 17.408-1.707 24.491-5.12s13.013-8.192 17.792-14.336c4.779-6.144 8.405-13.483 10.88-22.016s3.712-17.877 3.712-28.075h-95.573c0.299-6.229 1.451-12.032 3.328-17.451 1.92-5.419 4.523-10.112 7.893-14.123 3.328-3.968 7.424-7.083 12.203-9.344 4.779-2.219 10.283-3.328 16.512-3.328 9.088 0 16.512 2.091 22.229 6.315s9.728 10.539 11.947 18.987h18.901c-2.859-13.397-8.917-23.68-18.176-30.848-9.259-7.125-20.907-10.709-34.901-10.709zM375.851 497.621c-5.717 0-10.837-0.981-15.317-2.987s-8.235-4.779-11.349-8.363c-3.115-3.584-5.675-7.808-7.637-12.672-2.005-4.864-3.328-10.069-3.925-15.659h74.368c-0.64 12.416-4.011 22.144-10.155 29.184-6.187 6.997-14.848 10.496-25.984 10.496zM474.453 493.568h0.469c4.48 5.888 9.856 10.539 16.128 13.995 6.315 3.413 13.995 5.12 23.083 5.12 12.928 0 23.083-3.371 30.464-10.155 7.424-6.784 11.136-16.597 11.136-29.525v-86.784h-19.371v85.12c0 8.149-2.475 14.336-7.424 18.645s-11.776 6.443-20.565 6.443c-4.949 0-9.472-0.853-13.611-2.517s-7.723-3.968-10.752-6.955c-3.029-2.944-5.376-6.528-7.040-10.752s-2.517-8.875-2.517-13.995v-76.032h-19.371v123.605h19.371v-16.213zM657.451 382.72c-23.424 0-41.472 4.949-54.229 14.805s-19.456 23.936-20.053 42.197h34.133c1.28-10.411 4.949-17.835 11.051-22.229s15.317-6.613 27.648-6.613c4.48 0 8.747 0.384 12.757 1.195s7.552 2.091 10.581 3.84c3.029 1.749 5.504 4.053 7.339 6.869s2.773 6.229 2.773 10.24c0 4.181-1.024 7.595-2.987 10.325-2.005 2.731-4.864 4.992-8.533 6.869-3.669 1.835-8.149 3.456-13.355 4.821s-11.093 2.773-17.664 4.224c-7.68 1.749-15.104 3.712-22.229 5.888s-13.397 5.077-18.773 8.789c-5.376 3.669-9.685 8.405-12.971 14.165s-4.949 13.141-4.949 22.101c0 8.491 1.621 15.957 4.949 22.357 3.285 6.4 7.851 11.776 13.696 16.128 5.845 4.309 12.8 7.595 20.779 9.728 8.021 2.176 16.811 3.243 26.453 3.243 19.371 0 34.987-4.565 46.763-13.696s18.304-22.443 19.584-39.893h-33.408c-0.981 8.661-4.48 15.147-10.581 19.456s-13.611 6.485-22.613 6.485c-9.472 0-16.981-1.835-22.613-5.547-5.632-3.669-8.405-8.576-8.405-14.677 0-3.541 0.768-6.443 2.304-8.789s3.84-4.352 6.955-6.144c3.115-1.749 6.997-3.285 11.648-4.565s10.155-2.645 16.597-4.096c8.832-1.92 17.109-4.053 24.875-6.357 7.765-2.347 14.592-5.419 20.437-9.259s10.453-8.747 13.824-14.677c3.371-5.931 5.035-13.568 5.035-22.827 0-8.661-1.664-16.384-5.035-23.211s-8.021-12.501-13.952-17.067c-5.931-4.565-12.971-8.064-21.163-10.453-8.149-2.389-17.024-3.627-26.667-3.627zM817.835 382.72c-23.424 0-41.472 4.949-54.229 14.805s-19.456 23.936-20.053 42.197h34.133c1.28-10.411 4.949-17.835 11.051-22.229s15.317-6.613 27.648-6.613c4.48 0 8.747 0.384 12.757 1.195s7.552 2.091 10.581 3.84c3.029 1.749 5.504 4.053 7.339 6.869s2.773 6.229 2.773 10.24c0 4.181-1.024 7.595-2.987 10.325-2.005 2.731-4.864 4.992-8.533 6.869-3.669 1.835-8.149 3.456-13.355 4.821s-11.093 2.773-17.664 4.224c-7.68 1.749-15.104 3.712-22.229 5.888s-13.397 5.077-18.773 8.789c-5.376 3.669-9.685 8.405-12.971 14.165s-4.949 13.141-4.949 22.101c0 8.491 1.621 15.957 4.949 22.357 3.285 6.4 7.851 11.776 13.696 16.128 5.845 4.309 12.8 7.595 20.779 9.728 8.021 2.176 16.811 3.243 26.453 3.243 19.371 0 34.987-4.565 46.763-13.696s18.304-22.443 19.584-39.893h-33.408c-0.981 8.661-4.48 15.147-10.581 19.456s-13.611 6.485-22.613 6.485c-9.472 0-16.981-1.835-22.613-5.547-5.632-3.669-8.405-8.576-8.405-14.677 0-3.541 0.768-6.443 2.304-8.789s3.84-4.352 6.955-6.144c3.115-1.749 6.997-3.285 11.648-4.565s10.155-2.645 16.597-4.096c8.832-1.92 17.109-4.053 24.875-6.357 7.765-2.347 14.592-5.419 20.437-9.259s10.453-8.747 13.824-14.677c3.371-5.931 5.035-13.568 5.035-22.827 0-8.661-1.664-16.384-5.035-23.211s-8.021-12.501-13.952-17.067c-5.931-4.565-12.971-8.064-21.163-10.453-8.149-2.389-17.067-3.627-26.667-3.627zM908.373 558.507h34.859v-142.805h80.768v-29.099h-115.627v171.904z" />
<glyph unicode="&#xe944;" glyph-name="openstack" d="M768 874.667c-3.833 0-7.833-0.5-12-1.333l-500-41.333c-67.5-3.333-128-58.667-128-128v-85.333l42.667-42.667h-42.667v-213.333l42.667-42.667h-42.667v-153.333c0-16.5 6.5-36.667 20-46.667l65.333-56v597.333c0 60.5 44.833 82 85.333 85.333l596 57.333-94.667 60c-10.167 7.5-20.5 10.667-32 10.667zM896 746.667l-594.667-54.667c-23 0-45.333-22.333-45.333-48v-121.333l128 10.667v9.333c0 12.833 9.833 25.333 22.667 25.333l381.333 41.333c12.833 0 22.667-9.833 22.667-22.667v-10.667l128 10.667v118.667c0 25.667-16.667 41.333-42.667 41.333zM938.667 544l-128-10.667v-213.333l128 10.667zM754.667 533.333l-72-8v-120l42.667-42.667h-42.667v-17.333c0-12.833-8.167-21.833-25.333-22.667l-230.667-18.667v-60c0-6.333 5.5-9.333 12-9.333l301.333 26.667c20.333 4 28 16.833 28 36v225.333c-0.833 8.167-6.833 10.667-13.333 10.667zM384 490.667l-128-10.667v-213.333l128 10.667zM938.667 288l-128-10.667v-42.667c0-12.833-9.833-25.333-22.667-25.333l-381.333-40c-12.833 0-22.667 9.833-22.667 22.667v42.667l-128-10.667v-161.333c0-25.667 19.333-41.333 45.333-41.333l594.667 42.667c26 3 42.667 30.333 42.667 56z" />
<glyph unicode="&#xe945;" glyph-name="openstreetmap" d="M114.005-62.677c-15.019 3.797-22.784 9.984-62.763 49.835-47.616 47.488-50.645 52.139-50.475 76.885 0 27.52-8.363 17.664 143.701 170.069 153.6 153.941 145.707 147.243 173.397 147.157 12.885 0 16.128-0.683 26.453-5.973l11.819-5.973 74.411 74.411-9.301 14.635c-18.133 28.245-35.2 69.504-42.923 103.637-5.023 21.461-7.902 46.104-7.902 71.418 0 77.175 26.76 148.101 71.507 204.003l-0.502-0.648c106.24 133.12 296.917 162.645 437.76 67.755 77.312-51.968 127.573-132.224 141.995-226.731 2.987-19.925 2.987-67.371 0-88.491-10.14-74.176-44.201-138.987-94.023-187.763l-0.057-0.055c-23.325-24.19-50.755-44.228-81.201-59.030l-1.701-0.746c-40.917-20.608-75.733-30.293-122.923-34.261-67.115-5.589-141.653 13.013-198.656 49.621l-14.635 9.301-74.411-74.411 5.973-11.947c5.333-10.283 5.973-13.483 5.973-26.325 0.128-27.776 6.656-19.925-146.176-172.757-117.803-117.589-135.936-134.997-144.981-139.136-11.563-5.333-29.44-7.296-40.32-4.523zM746.027 364.8c87.027 16.63 158.285 72.528 195.678 148.157l0.717 1.603c59.349 123.691 19.413 269.056-95.019 345.941-27.221 18.347-65.237 33.877-100.992 41.045-24.789 4.992-77.184 4.437-102.997-1.067-39.796-8.458-74.908-24.24-105.485-45.983l0.867 0.585c-18.944-13.44-50.219-44.715-63.445-63.445-31.767-43.98-50.81-98.978-50.81-158.424 0-68.643 25.392-131.356 67.295-179.259l-0.272 0.317c41.806-47.933 99.565-81.015 164.928-90.947l1.514-0.189c21.717-3.328 65.792-2.475 88.107 1.579zM586.539 50.091c-55.831 15.092-87.087 24.596-118.153 34.528l24.457-6.752c-1.067 1.195 51.499 187.563 53.632 189.824 0.981 1.109 180.992-49.152 188.331-52.736 2.645-1.109-0.128-12.288-22.4-89.685 21.002 88.428 11.715 56.556 2.519 24.645l-29.612-120.048c-1.067-3.712-2.944-6.656-4.139-6.656-1.195 0.128-43.861 12.245-94.677 26.923zM710.784 27.733c0 2.261 52.352 184.875 53.163 185.472 2.005 1.451 184.491 52.48 185.216 51.669 0.811-0.811-51.157-185.045-52.48-186.027-0.853-0.811-176.043-50.816-181.717-51.968-2.304-0.469-4.181 0-4.181 0.811zM407.637 109.269c36.096 36.352 68.224 69.419 71.424 73.728 7.296 9.301 17.28 31.232 20.139 43.307 1.109 5.035 2.261 15.019 2.475 22.272l0.469 13.099 7.765 2.176c4.395 1.195 8.235 1.877 8.619 1.451 0.981-1.067-51.499-184.363-53.163-186.027-0.853-0.683-28.885-9.088-62.464-18.603l-60.8-17.28 65.579 65.792zM761.301 239.829c-0.9 2.179-1.764 4.84-2.434 7.578l-0.083 0.401-1.877 6.656 6.656 1.195c57.131 9.685 118.443 36.523 166.741 73.088 6.827 5.333 10.752 7.296 11.307 5.717 2.304-7.040 11.605-40.533 11.307-40.917-1.451-1.451-191.147-54.699-191.659-53.803zM117.76 295.296c-2.133 1.664-50.304 164.949-53.931 183.040-0.683 3.584 6.229 1.877 92.757-22.869 90.496-25.771 93.525-26.837 94.805-31.573 1.195-4.181 0.469-5.504-5.333-9.515-3.584-2.517-32.811-30.891-64.981-63.104-19.335-19.597-38.659-38.61-58.261-57.334l-1.046-0.992c-0.683 0-2.389 1.067-3.968 2.304zM152.789 482.091c-50.688 14.635-92.331 26.581-92.459 26.709-0.683 0.512 53.803 189.141 54.827 190.293 0.939 0.939 188.672-51.669 190.677-53.419 0.384-0.384-11.477-43.392-26.368-95.531-24.576-86.187-27.435-94.891-30.848-94.72-2.133 0.128-45.184 12.16-95.872 26.709zM279.040 459.136c0.512 1.323 9.045 30.848 18.944 65.451l17.92 62.976 2.389-13.696c3.968-23.723 11.307-50.688 19.797-74.283 4.523-12.629 7.979-22.997 7.723-23.253-0.341-0.256-14.165-4.309-30.677-9.045-16.597-4.651-31.616-8.96-33.536-9.557-2.475-0.683-3.2-0.256-2.517 1.451zM209.28 699.221c-50.645 14.464-92.459 27.093-93.013 27.904-1.707 2.645-53.163 184.363-52.48 185.088 1.109 1.067 183.893-51.371 185.643-53.163 2.005-2.176 54.613-186.837 53.163-186.709l-93.099 26.837zM300.928 772.309l-22.144 77.056-3.328 11.947 72.235 20.608c39.851 11.307 73.557 21.12 75.093 21.675 1.451 0.683-3.541-5.973-11.093-14.336-38.224-41.981-67.115-93.158-82.958-149.784l-0.626-2.621c-2.107-6.525-4.064-14.588-5.476-22.837l-0.156-1.099c0-12.501-4.907 1.067-21.547 59.307z" />
<glyph unicode="&#xe946;" glyph-name="opensuse" d="M457.557 960c-163.32-0.234-308.686-76.901-402.275-196.138l-0.839-1.11c62.464-16.683 106.667-31.019 119.893-35.499 0.213 8.107 1.579 80.768 1.579 80.768s0.171 1.707 1.067 2.56c1.109 1.109 2.773 0.768 2.773 0.768 16.427-2.389 367.019-54.357 514.816-140.459 18.219-10.667 27.221-22.059 38.485-33.536 40.875-42.24 94.848-217.941 100.651-254.165 0.213-1.408-1.536-2.987-2.304-3.541-3.767-2.999-8.118-6.196-12.586-9.235l-0.769-0.493c-34.987-23.467-115.541-79.872-218.88-70.656-92.843 8.235-214.101 61.44-360.32 157.824 14.336-33.707 28.501-67.413 42.667-101.163 21.205-11.008 225.579-115.2 326.443-113.109 81.237 1.707 168.149 41.301 202.923 62.208 0 0 7.637 4.608 10.965 2.048 3.627-2.816 2.603-7.125 1.749-11.52-2.133-9.984-6.997-28.16-10.325-36.821l-2.773-7.040c-3.968-10.667-7.808-20.565-15.189-26.667-20.48-18.603-53.163-33.451-104.363-55.68-79.147-34.645-207.573-56.661-326.827-55.893-42.709 0.939-83.968 5.675-120.192 9.899-74.368 8.405-134.869 15.232-171.776-11.477 94.196-107.819 231.859-175.622 385.364-175.872h0.044c282.77 0 512 229.23 512 512v0c0 282.77-229.23 512-512 512v0zM571.733 662.912c-1.634 0.064-3.553 0.1-5.48 0.1-39.511 0-75.44-15.331-102.165-40.369l0.082 0.076c-28.181-26.262-46.16-63.151-47.524-104.247l-0.006-0.244c-0.051-1.458-0.079-3.171-0.079-4.891 0-81.092 64.122-147.207 144.429-150.407l0.29-0.009c1.73-0.072 3.761-0.113 5.801-0.113 39.481 0 75.363 15.409 101.96 40.542l-0.071-0.066c28.129 26.248 46.094 63.076 47.524 104.107l0.007 0.255c0.051 1.469 0.081 3.194 0.081 4.927 0 81.128-64.199 147.262-144.566 150.371l-0.283 0.009zM570.453 618.752c56.271-2.093 101.094-48.215 101.094-104.806 0-1.239-0.021-2.474-0.064-3.703l0.005 0.178c-0.897-28.793-13.4-54.501-32.962-72.732l-0.062-0.057c-18.67-17.46-43.833-28.182-71.499-28.182-1.294 0-2.582 0.023-3.865 0.070l0.186-0.005c-56.209 2.253-100.924 48.367-100.924 104.923 0 1.243 0.022 2.481 0.064 3.714l-0.005-0.179c0.853 27.947 12.8 53.76 33.152 72.832 18.425 17.362 43.324 28.032 70.715 28.032 1.48 0 2.952-0.031 4.416-0.093l-0.209 0.007zM587.605 566.272c-25.685 0-46.379-13.867-46.379-31.019 0-17.067 20.693-30.933 46.379-30.933 25.6 0 46.421 13.909 46.421 30.933 0 17.152-20.779 30.976-46.421 30.976z" />
<glyph unicode="&#xe947;" glyph-name="openvpn" d="M512 874.667c-235.667 0-426.667-191-426.667-426.667 0-157.667 85.833-295.167 213-368.833l85.5 147.5c-76.333 44.333-127.833 126.667-127.833 221.333 0 141.333 114.667 256 256 256s256-114.667 256-256c0-94.667-51.5-177-127.833-221.333l85.5-147.5c127.167 73.667 213 211.167 213 368.833 0 235.667-191 426.667-426.667 426.667zM512 576c-70.667 0-128-57.333-128-128 0-54.833 34.667-101.333 83.333-119.5l-55.667-294.833c32.167-7.833 65.667-12.333 100.333-12.333s68.167 4.5 100.5 12.333l-55.833 294.833c48.5 18.167 83.333 64.667 83.333 119.5 0 70.667-57.333 128-128 128z" />
<glyph unicode="&#xe948;" glyph-name="openwrt" d="M512 960c-166.656 0-317.717-68.049-426.923-177.25l72.333-72.333c90.786 90.786 216.277 146.752 354.581 146.752 138.308 0 263.821-55.987 354.581-146.752l72.333 72.333c-109.227 109.201-260.262 177.25-426.923 177.25zM512 775.667c-115.588 0-220.523-47.522-296.418-123.418l72.333-72.333c57.429 57.429 136.87 92.915 224.085 92.915 87.189 0 166.626-35.487 224.085-92.915l72.333 72.333c-75.87 75.87-180.826 123.418-296.418 123.418zM182.251 615.415c-56.725-71.646-90.082-161.732-90.082-259.584 0-231.206 188.655-419.831 419.831-419.831 231.181 0 419.831 188.625 419.831 419.831 0 97.852-34.062 187.938-90.082 259.584l-73.084-73.084c38.289-52.471 61.001-117.022 61.001-186.5 0-175.159-142.507-317.751-317.666-317.751-175.155 0-317.751 142.592-317.751 317.751 0 69.478 22.688 134.029 61.001 186.5l-72.998 73.084zM512 591.249c-64.546 0-123.426-26.297-166.665-68.834l72.333-72.333c52.134 52.032 136.559 52.032 188.668 0l72.333 72.333c-44.177 44.207-104.175 69.018-166.665 68.834zM512 425.331c-38.387 0-69.5-31.109-69.5-69.5 0-38.366 31.113-69.5 69.5-69.5 38.391 0 69.5 31.134 69.5 69.5-0.081 38.366-31.134 69.449-69.5 69.5z" />
<glyph unicode="&#xe949;" glyph-name="opera" d="M643.8 894.6c-340.4 0-505.2-447.6-295-710.2 73-90.8 177.2-151.2 295-151.2 72.6 0 140.6 22.2 198.8 60.8-87.6-78.4-203.8-126-330.6-126-7.8 0-16 0-23.8 0.6-263 12.2-472.2 229.2-472.2 495.4 0 274 222 496 496 496h1.6c126.2-0.6 241.4-48.2 328.8-126.2-58 38.8-126.2 60.8-198.6 60.8zM847.4 99.2c-81.8-49.4-181.4-47.2-264 11.6 112.4 41 195.4 183.2 195.4 353.2 0 169.4-82.4 311.6-194.8 353.2 83.6 58.4 182.4 60.6 265.8 10 211.8-197.4 211-531.4-2.4-728z" />
<glyph unicode="&#xe94a;" glyph-name="opnsense" d="M785.877 487.253h224.384v-78.805h-224.171l70.827-37.76v-78.805l-218.283 116.565v78.805l218.069 116.779v-78.805l-70.827-37.973zM786.091 250.88l224.213-119.808v-78.549c0.427-61.995-50.176-117.077-113.28-116.523h-883.285v195.115l224.085 119.808h-147.413v78.805h55.339v-73.344l137.216 73.344h102.187v-78.763l-147.328-78.805h548.267l-147.413 78.805v78.763h102.4l137.216-73.344v73.344h55.339v-78.805h-147.541zM168.491 93.568v41.472l-78.080-41.771v-78.507h806.613c20.523 0.171 36.181 16.768 36.565 37.504v40.96l-75.264 40.235v-39.936h-689.835zM167.083 370.731v-78.805l218.069 116.565v78.763l-218.069 116.779v-78.805l71.040-37.973h-224.384v-78.805h224.171l-70.827-37.717zM1010.304 960v-195.072l-224.384-120.064h147.712v-78.805h-55.595v73.6l-137.472-73.6h-101.973v78.805l147.243 78.805h-547.84l147.157-78.805v-78.805h-101.931l-137.472 73.6v-73.6h-55.339v78.805h147.584l-224.256 120.064v78.549c-0.939 61.44 50.048 117.035 113.237 116.523h883.328zM933.589 881.237h-806.613c-20.821-0.384-36.139-16.811-36.565-37.547v-41.045l76.672-41.045v40.832h689.835v-40.789l76.672 41.045v78.549z" />
<glyph unicode="&#xe94b;" glyph-name="opsgenie" d="M512.085 960c0.982 0.014 2.141 0.021 3.302 0.021 141.102 0 255.488-114.386 255.488-255.488s-114.386-255.488-255.488-255.488c-1.161 0-2.32 0.008-3.477 0.023l0.176-0.002c-139.675 1.863-252.186 115.525-252.186 255.467s112.511 253.604 252.011 255.465l0.176 0.002zM926.933 404.224h-1.28l-193.152 95.659c-3.669 1.833-7.993 2.906-12.567 2.906-10.552 0-19.77-5.708-24.735-14.205l-0.073-0.136c-51.578-85.467-112.505-158.764-182.822-221.798l-0.901-0.794c-70.847 63.653-131.487 136.704-180.471 217.601l-2.398 4.266c-5.034 8.651-14.263 14.374-24.828 14.374-4.567 0-8.884-1.069-12.715-2.971l0.167 0.075-193.493-94.976h-1.28c-8.513-5.066-14.127-14.22-14.127-24.685 0-5.063 1.314-9.819 3.62-13.946l-0.074 0.145c56.225-96.272 120.534-179.367 194.158-253.166l-0.024 0.024-0.085-0.043c1.024-1.067 2.133-2.048 3.2-3.072 14.293-14.293 28.843-28.331 43.819-41.856 3.456-3.157 7.040-6.144 10.539-9.259 13.44-11.861 26.965-23.68 40.96-34.987 6.144-4.992 12.587-9.685 18.816-14.549 11.819-9.216 23.552-18.517 35.712-27.264 18.773-13.568 37.888-26.667 57.429-39.125 6.247-4.035 13.881-6.433 22.074-6.433 7.706 0 14.916 2.121 21.078 5.811l-0.187-0.104c20.779 13.312 41.045 27.307 60.928 41.813 2.901 2.133 5.632 4.395 8.533 6.528 15.275 11.349 30.421 22.912 45.227 34.987 9.984 8.107 19.627 16.64 29.355 25.088 7.253 6.272 14.507 12.416 21.589 18.859 12.587 11.435 24.747 23.253 36.864 35.2 2.603 2.56 5.419 5.035 8.021 7.637l-0.171 0.085c73.875 73.956 138.399 157.278 191.63 248.026l3.144 5.798c2.101 3.885 3.335 8.503 3.335 13.411 0 10.742-5.916 20.102-14.668 25l-0.145 0.074z" />
<glyph unicode="&#xe94c;" glyph-name="opslevel" d="M511.915 960l-200.333-115.917v-87.253l-208-119.164v-213.751l-89.161-51.584v-231.915l200.418-115.998 70.912 41.084 226.249-129.502 226.167 129.502 70.997-41.088 200.418 116.002v231.919l-89.165 51.499v213.833l-208.085 119.168v87.249l-200.418 115.917zM511.915 909.001l133.419-77.333-133.333-76.587-133.333 76.672 133.248 77.248zM355.831 793.835l134.084-77.086v-156.834l-134.084 77.751v156.169zM668.083 793.835v-156.169l-133.918-77.581v156.749l133.918 77.001zM712.333 705.835l163.917-93.751v-162.667l-67.085 38.835-200.414-115.917v-231.919l85.248-49.331-181.999-104.085-181.918 104.085 85.167 49.331v231.919l-200.414 115.917-67.004-38.75v162.581l163.755 93.666v-93.666h0.081l200.333-115.917 200.333 115.917v93.751zM214.835 437.163l133.333-77.163-133.333-76.668-133.333 76.668 22.080 12.834 111.253 64.333zM809.165 437.163l133.252-77.163-133.248-76.668-133.333 76.668 133.333 77.167zM58.752 322.172l134.080-77.167v-156.834l-134.080 77.747v156.245zM370.999 322.172v-156.25l-133.918-77.585v156.749l133.918 77.086zM653.001 322.172l134.165-77.167v-156.834l-4.582 2.752-129.583 74.999v156.245zM965.248 322.172v-156.25l-133.914-77.585v156.668l133.914 77.167z" />
<glyph unicode="&#xe94d;" glyph-name="opthalmology" d="M832 789.333c11.782 0 21.333-9.551 21.333-21.333v-640c0-11.782-9.551-21.333-21.333-21.333h-640c-11.782 0-21.333 9.551-21.333 21.333v640c0 11.782 9.551 21.333 21.333 21.333h640zM192 832c-35.346 0-64-28.654-64-64v-640c0-35.347 28.654-64 64-64h640c35.347 0 64 28.653 64 64v640c0 35.346-28.653 64-64 64h-640zM810.667 439.467c0 0-164.267-179.2-297.882-179.2-133.613 0-299.452 179.2-299.452 179.2s165.839 179.2 299.452 179.2c133.615 0 297.882-179.2 297.882-179.2zM338.991 495.264c-25.967-20-48.538-40.096-65.178-55.797 16.64-15.701 39.211-35.797 65.178-55.797 27.71-21.346 58.477-41.954 89.389-57.077 31.285-15.307 60.021-23.659 84.405-23.659 24.369 0 52.99 8.341 84.096 23.627 30.741 15.106 61.299 35.693 88.804 57.022 25.839 20.041 48.269 40.175 64.772 55.885-16.503 15.71-38.933 35.844-64.772 55.885-27.505 21.329-58.063 41.916-88.804 57.022-31.106 15.285-59.727 23.627-84.096 23.627-24.384 0-53.12-8.352-84.405-23.659-30.912-15.123-61.679-35.731-89.389-57.077zM512 317.867c-67.157 0-121.6 54.443-121.6 121.6s54.443 121.6 121.6 121.6c67.157 0 121.6-54.443 121.6-121.6s-54.443-121.6-121.6-121.6zM512 275.2c90.722 0 164.267 73.545 164.267 164.267s-73.545 164.267-164.267 164.267c-90.722 0-164.267-73.545-164.267-164.267s73.545-164.267 164.267-164.267zM512 364.8c41.237 0 74.667 33.429 74.667 74.667 0 18.543-6.758 35.507-17.948 48.563 1.916-3.302 3.014-7.138 3.014-11.232 0-12.371-10.029-22.4-22.4-22.4s-22.4 10.029-22.4 22.4c0 12.371 10.029 22.4 22.4 22.4 4.094 0 7.93-1.099 11.232-3.017-13.056 11.191-30.020 17.952-48.565 17.952-41.237 0-74.667-33.429-74.667-74.667s33.429-74.667 74.667-74.667z" />
<glyph unicode="&#xe94e;" glyph-name="optimize" d="M405.333 789.333l192-170.667 214.022 125.658-107.356-232.324 192-170.667-256 21.333-96-213.333-53.333 234.667-255.991 21.333 224.166 135.467-53.508 248.533z" />
</font>
</defs>
</svg>
